<?xml version="1.0" standalone="no"?><!DOCTYPE svg PUBLIC "-//W3C//DTD SVG 1.1//EN" "http://www.w3.org/Graphics/SVG/1.1/DTD/svg11.dtd"><svg t="1609310223802" class="icon" viewBox="0 0 1644 1024" version="1.1" xmlns="http://www.w3.org/2000/svg" p-id="2554" width="205.5" height="128" xmlns:xlink="http://www.w3.org/1999/xlink"><defs><style type="text/css"></style></defs><path d="M835.848687 591.75c-22.25-12.875-75.75-36-43.625-87.25 28.75-42.5 51-59.75 50.875-130.75 0.25-67.5-49.75-138-123.375-138C638.723687 235.75 588.848687 306.25 588.848687 373.75c-0.125 71 22.25 88.25 50.875 130.75 32.25 51.125-21.25 74.25-43.625 87.25-96 54.5-137.875 75-137.875 101.625v36.25c0 11.75 8.75 21.75 21.75 21.75h472.25c13.125 0 21.75-10.125 21.75-21.75v-36.25c0-26.625-42-47.125-138.125-101.625z m0 0M1026.973687 816.125c-27.25 0-49.375 22.125-49.375 49.375s22.125 49.375 49.375 49.375 49.375-22.125 49.375-49.375c0-27.375-22-49.375-49.375-49.375z m118-42.625h-61.875L1069.598687 746.5h-89.75l-13.5 26.875h-57.375c-10.375 0-18.875 8.5-18.875 18.875v146.125c0 10.375 8.5 18.875 18.875 18.875h235.875c10.375 0 18.875-8.5 18.875-18.875V792.375c0.125-10.5-8.375-18.875-18.75-18.875z m-118 157c-35.875 0-65-29.125-65-65s29.125-65 65-65 65 29.125 65 65c0.125 35.875-29 65-65 65z m0 0M1171.098687 1024h-41c-2.875 0-5.125-2.25-5.125-5.125s2.25-5.125 5.125-5.125h41c1.375 0 2.625 0.5 3.625 1.5 1 1 1.5 2.25 1.5 3.625 0 2.875-2.25 5.125-5.125 5.125z m-81.875 0h-41c-2.875 0-5.125-2.25-5.125-5.125s2.25-5.125 5.125-5.125h41c1.375 0 2.625 0.5 3.625 1.5 1 1 1.5 2.25 1.5 3.625 0 2.875-2.25 5.125-5.125 5.125z m-81.875 0h-41c-2.875 0-5.125-2.25-5.125-5.125s2.25-5.125 5.125-5.125h41c1.375 0 2.625 0.5 3.625 1.5 1 1 1.5 2.25 1.5 3.625 0 2.875-2.375 5.125-5.125 5.125z m-82 0h-41c-2.875 0-5.125-2.25-5.125-5.125s2.25-5.125 5.125-5.125h41c1.375 0 2.625 0.5 3.625 1.5 1 1 1.5 2.25 1.5 3.625 0 2.875-2.25 5.125-5.125 5.125z m-81.875 0h-41c-2.875 0-5.125-2.25-5.125-5.125 0-1.375 0.5-2.625 1.5-3.625 1-1 2.25-1.5 3.625-1.5h41c1.375 0 2.625 0.5 3.625 1.5 1 1 1.5 2.25 1.5 3.625 0 1.375-0.5 2.625-1.5 3.625-1 1-2.25 1.5-3.625 1.5z m-81.875 0h-41c-2.875 0-5.125-2.25-5.125-5.125 0-1.375 0.5-2.625 1.5-3.625 1-1 2.25-1.5 3.625-1.5h41c2.875 0 5.125 2.25 5.125 5.125s-2.375 5.125-5.125 5.125z m-82 0H638.723687c-2.875 0-5.125-2.25-5.125-5.125 0-1.375 0.5-2.625 1.5-3.625 1-1 2.25-1.5 3.625-1.5H679.598687c2.875 0 5.125 2.25 5.125 5.125s-2.25 5.125-5.125 5.125z m-81.875 0H556.723687c-2.875 0-5.125-2.25-5.125-5.125 0-1.375 0.5-2.625 1.5-3.625 1-1 2.25-1.5 3.625-1.5h41c2.875 0 5.125 2.25 5.125 5.125s-2.25 5.125-5.125 5.125z m-81.875 0h-41c-2.875 0-5.125-2.25-5.125-5.125 0-1.375 0.5-2.625 1.5-3.625 1-1 2.25-1.5 3.625-1.5H515.848687c2.875 0 5.125 2.25 5.125 5.125s-2.375 5.125-5.125 5.125z m-82 0h-41c-2.875 0-5.125-2.25-5.125-5.125 0-1.375 0.5-2.625 1.5-3.625 1-1 2.25-1.5 3.625-1.5h41c1.375 0 2.625 0.5 3.625 1.5 1 1 1.5 2.25 1.5 3.625 0 1.375-0.5 2.625-1.5 3.625-1 1-2.25 1.5-3.625 1.5z m-81.875 0h-41c-2.875 0-5.125-2.25-5.125-5.125 0-1.375 0.5-2.625 1.5-3.625 1-1 2.25-1.5 3.625-1.5h41c1.375 0 2.625 0.5 3.625 1.5 1 1 1.5 2.25 1.5 3.625 0 1.375-0.5 2.625-1.5 3.625-1 1-2.25 1.5-3.625 1.5z m-81.875 0h-21c-6.75-0.125-13.25-1.375-19.5-4-2.625-1.125-3.75-4.125-2.75-6.75 0.75-1.875 2.625-3.125 4.75-3.125 0.75 0 1.375 0.125 2 0.375 5 2.125 10.5 3.25 16 3.25h20.5c1.375 0 2.625 0.5 3.625 1.5 1 1 1.5 2.25 1.5 3.625 0 1.375-0.5 2.625-1.5 3.625-1 1-2.375 1.5-3.625 1.5z m-63.5-29.375c-2.125 0-4-1.25-4.75-3.25-1.375-3.5-2.375-7.125-2.875-10.875v-0.25-0.125c0-0.125 0-0.25-0.125-0.375v-0.5-0.875-1.375V975.875 975 950.75c0-1.375 0.5-2.625 1.5-3.625 1-1 2.25-1.5 3.625-1.5 2.875 0 5.125 2.25 5.125 5.125v22c0 5.125 1 10.125 2.75 14.875 1 2.625-0.25 5.625-2.875 6.625-1.125 0.25-1.75 0.375-2.375 0.375z m-3.125-79.625c-1.375 0-2.625-0.5-3.625-1.5-1-1-1.5-2.25-1.5-3.625v-41c0-1.375 0.5-2.625 1.5-3.625 1-1 2.25-1.5 3.625-1.5 2.875 0 5.125 2.25 5.125 5.125v41c0 1.375-0.5 2.625-1.5 3.625-1 1-2.25 1.5-3.625 1.5z m0-81.875c-1.375 0-2.625-0.5-3.625-1.5-1-1-1.5-2.25-1.5-3.625v-41c0-1.375 0.5-2.625 1.5-3.625 1-1 2.25-1.5 3.625-1.5 2.875 0 5.125 2.25 5.125 5.125v41c0 1.375-0.5 2.625-1.5 3.625-1 0.875-2.25 1.5-3.625 1.5z m0-82c-1.375 0-2.625-0.5-3.625-1.5-1-1-1.5-2.25-1.5-3.625V705c0-1.375 0.5-2.625 1.5-3.625 1-1 2.25-1.5 3.625-1.5 2.875 0 5.125 2.25 5.125 5.125v41c0 1.375-0.5 2.625-1.5 3.625-1 1-2.25 1.5-3.625 1.5z m0-81.875c-1.375 0-2.625-0.5-3.625-1.5-1-1-1.5-2.25-1.5-3.625v-41c0-1.375 0.5-2.625 1.5-3.625 1-1 2.25-1.5 3.625-1.5 1.375 0 2.625 0.5 3.625 1.5 1 1 1.5 2.25 1.5 3.625v41c0 1.375-0.5 2.625-1.5 3.625-1 1-2.25 1.5-3.625 1.5z m0-81.875c-1.375 0-2.625-0.5-3.625-1.5-1-1-1.5-2.25-1.5-3.625V541.25c0-1.375 0.5-2.625 1.5-3.625 1-1 2.25-1.5 3.625-1.5 1.375 0 2.625 0.5 3.625 1.5 1 1 1.5 2.25 1.5 3.625v41c0 2.75-2.25 5-5.125 5.125z m0-82c-2.875 0-5.125-2.25-5.125-5.125v-41c0-1.375 0.5-2.625 1.5-3.625 1-1 2.25-1.5 3.625-1.5 1.375 0 2.625 0.5 3.625 1.5 1 1 1.5 2.25 1.5 3.625v41c0 2.875-2.25 5.125-5.125 5.125z m0-81.875c-2.875 0-5.125-2.25-5.125-5.125v-41c0-1.375 0.5-2.625 1.5-3.625 1-1 2.25-1.5 3.625-1.5s2.625 0.5 3.625 1.5c1 1 1.5 2.25 1.5 3.625v41c0 2.75-2.25 5.125-5.125 5.125z m0-81.875c-2.875 0-5.125-2.25-5.125-5.125V295.5c0-2.875 2.25-5.125 5.125-5.125s5.125 2.25 5.125 5.125v41c0 2.75-2.25 5.125-5.125 5.125z m0-82c-1.375 0-2.625-0.5-3.625-1.5-1-1-1.5-2.25-1.5-3.625V213.625c0-2.875 2.25-5.125 5.125-5.125s5.125 2.25 5.125 5.125v41c0 2.75-2.25 5-5.125 5z m0-81.875c-1.375 0-2.625-0.5-3.625-1.5-1-1-1.5-2.25-1.5-3.625v-41c0-2.875 2.25-5.125 5.125-5.125s5.125 2.25 5.125 5.125v41c0 2.875-2.25 5.125-5.125 5.125z m0-81.875c-2.875 0-5.125-2.25-5.125-5.125v-41-0.125c0.125-2.75 2.375-4.875 5-4.875h0.125c2.875 0.125 5.125 2.5 5 5.25v40.75c0.125 2.75-2.125 5.125-5 5.125z m15-73.5c-1.5 0-2.75-0.625-3.75-1.625-1.875-2.125-1.75-5.25 0.25-7.25 3.25-3 6.875-5.5 10.75-7.625 0 0 0.125 0 0.125-0.125h0.25c0.125-0.125 0.25-0.125 0.5-0.25h0.25c0.125-0.125 0.25-0.125 0.5-0.25h0.75l0.75-0.375h0.25c3.25-1.25 6.75-2.25 10.375-2.875 0.375-0.125 0.75-0.125 1-0.125h0.5c0.25 0 0.625-0.125 0.875-0.125h0.75c0.125 0 0.375 0 0.5-0.125h8c2.875 0 5.125 2.25 5.125 5.125s-2.25 5.125-5.125 5.125h-3c-10.25 0-20.125 3.875-27.625 10.75 0.5-0.75-0.75-0.25-2-0.25z m116-12.125h-41c-2.875 0-5.125-2.25-5.125-5.125s2.25-5.125 5.125-5.125h41c2.875 0 5.125 2.25 5.125 5.125s-2.375 5.125-5.125 5.125z m81.875 0h-41c-1.375 0-2.625-0.5-3.625-1.5-1-1-1.5-2.25-1.5-3.625 0-2.875 2.25-5.125 5.125-5.125h41c2.875 0 5.125 2.25 5.125 5.125s-2.25 5.125-5.125 5.125z m82 0h-41c-1.375 0-2.625-0.5-3.625-1.5-1-1-1.5-2.25-1.5-3.625 0-2.875 2.25-5.125 5.125-5.125H498.348687c2.875 0 5.125 2.25 5.125 5.125-0.125 2.875-2.375 5.125-5.125 5.125z m81.875 0H539.223687c-1.375 0-2.625-0.5-3.625-1.5-1-1-1.5-2.25-1.5-3.625 0-2.875 2.25-5.125 5.125-5.125h41c2.875 0 5.125 2.25 5.125 5.125s-2.375 5.125-5.125 5.125z m81.875 0H621.223687c-1.375 0-2.625-0.5-3.625-1.5-1-1-1.5-2.25-1.5-3.625 0-1.375 0.5-2.625 1.5-3.625 1-1 2.25-1.5 3.625-1.5H662.098687c2.875 0 5.125 2.25 5.125 5.125 0 1.375-0.5 2.625-1.5 3.625-1 1-2.25 1.5-3.625 1.5z m82 0h-41c-2.875 0-5.125-2.25-5.125-5.125s2.25-5.125 5.125-5.125h41c2.875 0 5.125 2.25 5.125 5.125-0.125 2.875-2.375 5.125-5.125 5.125z m81.875 0h-41c-2.875 0-5.125-2.25-5.125-5.125s2.25-5.125 5.125-5.125h41c2.875 0 5.125 2.25 5.125 5.125s-2.25 5.125-5.125 5.125z m81.875 0h-41c-2.875 0-5.125-2.25-5.125-5.125s2.25-5.125 5.125-5.125h41c2.875 0 5.125 2.25 5.125 5.125s-2.25 5.125-5.125 5.125z m81.875 0h-41c-2.75 0-5.125-2.25-5.125-5.125s2.375-5.125 5.125-5.125h41c2.875 0 5.125 2.25 5.125 5.125 0.125 2.875-2.25 5.125-5.125 5.125z m82 0h-41c-2.75 0-5.125-2.25-5.125-5.125s2.375-5.125 5.125-5.125h41c1.375 0 2.625 0.5 3.625 1.5 1 1 1.5 2.25 1.5 3.625 0 2.875-2.25 5.125-5.125 5.125z m81.875 0h-41c-2.75 0-5.125-2.25-5.125-5.125s2.375-5.125 5.125-5.125h41c1.375 0 2.625 0.5 3.625 1.5 1 1 1.5 2.25 1.5 3.625 0 2.875-2.25 5.125-5.125 5.125z m61.375 31.875c-2.125 0-4.25-1.375-4.875-3.5-3.375-10.5-11-19.25-20.875-24.125-2.5-1.25-3.625-4.375-2.375-6.875 0.875-1.75 2.625-2.875 4.625-2.875 0.75 0 1.5 0.125 2.25 0.5 12.375 6.125 21.875 17 26.125 30.25 0.875 2.75-0.625 5.5-3.375 6.375-0.375 0.125-1 0.25-1.5 0.25z m2.25 80.125c-1.375 0-2.625-0.5-3.625-1.5-1-1-1.5-2.25-1.5-3.625v-41c0-1.375 0.5-2.625 1.5-3.625 1-1 2.25-1.5 3.625-1.5 1.375 0 2.625 0.5 3.625 1.5 1 1 1.5 2.25 1.5 3.625v41c0 1.375-0.5 2.625-1.5 3.625-1 1-2.25 1.5-3.625 1.5z m0 81.875c-1.375 0-2.625-0.5-3.625-1.5-1-1-1.5-2.25-1.5-3.625v-41c0-1.375 0.5-2.625 1.5-3.625 1-1 2.25-1.5 3.625-1.5 1.375 0 2.625 0.5 3.625 1.5 1 1 1.5 2.25 1.5 3.625V199c0 1.375-0.5 2.625-1.5 3.625-1 1-2.25 1.5-3.625 1.5z m0 82c-1.375 0-2.625-0.5-3.625-1.5-1-1-1.5-2.25-1.5-3.625V240c0-1.375 0.5-2.625 1.5-3.625 1-1 2.25-1.5 3.625-1.5 1.375 0 2.625 0.5 3.625 1.5 1 1 1.5 2.25 1.5 3.625v41c0 1.375-0.5 2.625-1.5 3.625-1 0.875-2.25 1.5-3.625 1.5z m0 81.875c-1.375 0-2.625-0.5-3.625-1.5-1-1-1.5-2.25-1.5-3.625v-41c0-1.375 0.5-2.625 1.5-3.625 1-1 2.25-1.5 3.625-1.5s2.625 0.5 3.625 1.5c1 1 1.5 2.25 1.5 3.625v41c0 1.375-0.5 2.625-1.5 3.625-1 1-2.25 1.5-3.625 1.5z m0 81.875c-1.375 0-2.625-0.5-3.625-1.5-1-1-1.5-2.25-1.5-3.625V403.75c0-1.375 0.5-2.625 1.5-3.625 1-1 2.25-1.5 3.625-1.5s2.625 0.5 3.625 1.5c1 1 1.5 2.25 1.5 3.625v41c0 1.375-0.5 2.625-1.5 3.625-1 1-2.25 1.5-3.625 1.5z m0 82c-1.375 0-2.625-0.5-3.625-1.5-1-1-1.5-2.25-1.5-3.625v-41c0-1.375 0.5-2.625 1.5-3.625 1-1 2.25-1.5 3.625-1.5s2.625 0.5 3.625 1.5c1 1 1.5 2.25 1.5 3.625v41c0 2.75-2.25 5.125-5.125 5.125z m0 81.875c-2.875 0-5.125-2.25-5.125-5.125v-41c0-1.375 0.5-2.625 1.5-3.625 1-1 2.25-1.5 3.625-1.5 1.375 0 2.625 0.5 3.625 1.5 1 1 1.5 2.25 1.5 3.625v41c0 2.875-2.25 5.125-5.125 5.125z m0 81.875c-2.875 0-5.125-2.375-5.125-5.125v-41c0-2.875 2.25-5.125 5.125-5.125s5.125 2.25 5.125 5.125v41c0 2.875-2.25 5.125-5.125 5.125z m0 82c-2.875 0-5.125-2.25-5.125-5.125v-41c0-2.875 2.25-5.125 5.125-5.125s5.125 2.25 5.125 5.125V772.5c0 2.75-2.25 5.125-5.125 5.125z m0 81.875c-2.875 0-5.125-2.375-5.125-5.125v-41c0-2.875 2.25-5.125 5.125-5.125s5.125 2.25 5.125 5.125v41c0 2.875-2.25 5.125-5.125 5.125z m0 81.875c-1.375 0-2.625-0.5-3.625-1.5-1-1-1.5-2.25-1.5-3.625v-41c0-1.375 0.5-2.625 1.5-3.625 1-1 2.25-1.5 3.625-1.5 2.875 0 5.125 2.25 5.125 5.125V936.25c0 1.375-0.5 2.625-1.5 3.625-1 1-2.25 1.5-3.625 1.5z m-17 72.25c-1.5 0-3-0.75-4-1.875-1.75-2.125-1.5-5.375 0.75-7.25 8.625-7 14-17.125 14.875-28.25 0.25-2.625 2.375-4.625 5.125-4.625h0.5c2.875 0.25 4.875 2.75 4.625 5.5-0.25 3.25-0.875 6.5-1.75 9.75V990.375c-3.125 8.625-8.625 16.125-15.75 22-2.125 0.875-3.25 1.25-4.375 1.25zM700.098687 727" p-id="2555" fill="#cdcdcd"></path></svg>