<?xml version="1.0" standalone="no"?><!DOCTYPE svg PUBLIC "-//W3C//DTD SVG 1.1//EN" "http://www.w3.org/Graphics/SVG/1.1/DTD/svg11.dtd"><svg t="1608256152437" class="icon" viewBox="0 0 1025 1024" version="1.1" xmlns="http://www.w3.org/2000/svg" p-id="4194" xmlns:xlink="http://www.w3.org/1999/xlink" width="32.03125" height="32"><defs><style type="text/css"></style></defs><path d="M512 339.2C416 339.2 339.2 416 339.2 512c0 96 76.8 172.8 172.8 172.8s172.8-76.8 172.8-172.8c0-96-76.8-172.8-172.8-172.8z m0 262.4c-51.2 0-89.6-38.4-89.6-89.6 0-51.2 38.4-89.6 89.6-89.6s89.6 38.4 89.6 89.6c0 51.2-38.4 89.6-89.6 89.6z" p-id="4195" fill="#cdcdcd"></path><path d="M1011.2 473.6C857.6 288 691.2 192 512 192S166.4 288 12.8 473.6c-19.2 25.6-19.2 57.6 0 83.2C166.4 736 332.8 832 512 832s345.6-96 499.2-281.6c19.2-19.2 19.2-57.6 0-76.8zM512 748.8c-147.2 0-288-76.8-416-236.8 128-160 268.8-236.8 416-236.8s288 76.8 416 236.8c-128 160-268.8 236.8-416 236.8z" p-id="4196" fill="#cdcdcd"></path></svg>