<svg xmlns="http://www.w3.org/2000/svg" viewBox="0 0 32 32" width="24" height="24" style="fill: rgba(212, 217, 226, 1);"><path d="M2.728 11.048c-0.857-0.916 0.502-2.309 1.361-1.39 1.861 1.991 4.44 3.549 6.971 4.427 6.382 2.212 12.525-0.017 17.459-4.427 0.93-0.831 2.297 0.554 1.361 1.39-0.639 0.571-1.302 1.114-1.985 1.621 0.574 1.127 1.147 2.254 1.721 3.381 0.572 1.124-1.089 2.118-1.662 0.992-0.621-1.222-1.243-2.443-1.865-3.664l0.2 0.393c-1.14 0.72-2.327 1.339-3.551 1.836l1.392 3.627c0.454 1.182-1.408 1.689-1.856 0.523l-1.349-3.514c-1.318 0.39-2.671 0.632-4.045 0.701v-0c0.001 0.024 0.002 0.048 0.002 0.073v4.129c0 1.268-1.925 1.268-1.925 0v-4.129c0-0.031 0.001-0.062 0.003-0.091-1.29-0.090-2.593-0.34-3.899-0.771-0.030-0.010-0.060-0.020-0.091-0.030l-1.469 3.829c-0.448 1.166-2.309 0.659-1.856-0.523l1.475-3.844c0.022-0.057 0.044-0.104 0.070-0.149l-0.003 0.006c-1.128-0.485-2.236-1.070-3.277-1.751-0.755 0.999-1.509 1.998-2.264 2.997-0.32 0.424-0.82 0.65-1.316 0.353-0.409-0.245-0.667-0.92-0.345-1.345l2.37-3.138c-0.579-0.47-1.124-0.974-1.627-1.511z"></path></svg>