<?xml version="1.0" standalone="no"?><!DOCTYPE svg PUBLIC "-//W3C//DTD SVG 1.1//EN" "http://www.w3.org/Graphics/SVG/1.1/DTD/svg11.dtd"><svg t="1609769641681" class="icon" viewBox="0 0 1157 1024" version="1.1" xmlns="http://www.w3.org/2000/svg" p-id="6612" xmlns:xlink="http://www.w3.org/1999/xlink" width="144.625" height="128"><defs><style type="text/css"></style></defs><path d="M293.769275 309.559652h727.960116v-74.009971H293.769275z" fill="#3682C4" p-id="6613"></path><path d="M293.769275 425.182609h727.960116v-74.009971H293.769275z" fill="#EBE12C" p-id="6614"></path><path d="M293.769275 462.180174h727.960116v-73.995131H293.769275z" fill="#E94451" p-id="6615"></path><path d="M293.769275 462.180174h727.960116v-7.67258H293.769275z" fill="#BE3541" p-id="6616"></path><path d="M990.059594 170.904116a39.906319 39.906319 0 0 1 39.861797 38.125449l0.029681 1.78087V486.177391a39.891478 39.891478 0 0 1-38.110608 39.846957l-1.78087 0.029681H325.453913a39.891478 39.891478 0 0 1-39.861797-38.110609l-0.029681-1.780869V235.564522a8.221681 8.221681 0 0 1 16.384-0.949797l0.059362 0.949797V486.177391a23.448116 23.448116 0 0 0 22.067942 23.403595l1.380174 0.029681h664.605681a23.448116 23.448116 0 0 0 23.403594-22.053102l0.044522-1.380174V210.810435a23.448116 23.448116 0 0 0-22.067942-23.418435l-1.380174-0.044522H325.453913c-7.360928 0-14.157913 3.413333-18.580406 9.126957a8.221681 8.221681 0 0 1-13.000348-10.047073 39.832116 39.832116 0 0 1 29.503073-15.463884l2.077681-0.059362h664.605681z" fill="#000000" p-id="6617"></path><path d="M841.045333 890.286377a26.920812 26.920812 0 0 1 0-53.841623h79.975884v-100.322319H769.78087a26.920812 26.920812 0 0 1 0-53.841623h151.225507v-97.294841H307.110957v107.26771a50.903188 50.903188 0 0 1 37.813797-16.829217h197.913971a51.096116 51.096116 0 0 1 51.096116 51.096116V924.41971a51.096116 51.096116 0 0 1-51.096116 51.096116H344.924754a50.903188 50.903188 0 0 1-37.813797-16.829217v42.859594H921.006377v-111.289507h-79.975884z" fill="#3682C5" p-id="6618"></path><path d="M851.596986 669.94829h-155.084058a17.007304 17.007304 0 0 1-17.022145-17.007304v-15.330319c0-9.379246 7.628058-16.992464 17.007304-16.992464h155.084058c9.408928 0 17.007304 7.613217 17.007304 16.992464v15.330319c0 9.394087-7.598377 17.007304-16.992463 17.007304M886.53171 825.477565h-155.084058a17.022145 17.022145 0 0 1-17.022145-17.007304v-15.315478c0-9.394087 7.628058-17.007304 17.022145-17.007305h155.084058c9.394087 0 17.007304 7.613217 17.007304 17.007305v15.315478c0 9.379246-7.613217 17.007304-17.007304 17.007304M851.596986 945.715942h-155.084058a17.022145 17.022145 0 0 1-17.022145-16.992464v-15.330319c0-9.394087 7.628058-17.007304 17.007304-17.007304h155.084058c9.408928 0 17.007304 7.613217 17.007304 17.007304v15.330319c0 9.379246-7.598377 16.992464-16.992463 16.992464" fill="#ED3C4A" p-id="6619"></path><path d="M660.123826 975.530667h-72.214261a16.280116 16.280116 0 0 1-16.280116-16.280116V691.70458c0-8.978551 7.286725-16.280116 16.280116-16.280116h72.214261c8.993391 0 16.280116 7.301565 16.280116 16.280116v267.545971c0 8.978551-7.271884 16.280116-16.280116 16.280116" fill="#EC3C4A" p-id="6620"></path><path d="M204.339942 301.32313c4.214725 0 7.68742 3.175884 8.162319 7.271884l0.059362 0.949798v268.569971l401.497044 0.01484c4.214725 0 7.68742 3.175884 8.162319 7.271884l0.059362 0.949797v89.07316a8.221681 8.221681 0 0 1-16.384 0.964637l-0.059362-0.964637v-80.866319l-401.497044 0.014841a8.221681 8.221681 0 0 1-8.162319-7.271885l-0.059362-0.949797V309.544812c0-4.541217 3.680464-8.221681 8.221681-8.221682z" fill="#000000" p-id="6621"></path><path d="M651.51629 667.202783h-74.900406a33.109333 33.109333 0 0 0-33.124174 33.109333v250.316058c0 18.298435 14.825739 33.124174 33.124174 33.124174H651.501449a33.109333 33.109333 0 0 0 33.109334-33.124174V700.326957a33.094493 33.094493 0 0 0-33.094493-33.094493z m-74.900406 16.443362H651.501449c9.201159 0 16.665971 7.464812 16.665971 16.665971v250.316058c0 9.216-7.449971 16.680812-16.665971 16.680812h-74.900406c-9.216 0-16.680812-7.464812-16.680811-16.680812V700.326957c0-9.201159 7.464812-16.665971 16.680811-16.665971zM293.769275 331.464348v16.443362H204.354783v-16.443362zM293.784116 375.852522v24.665043h-89.444174v-24.665043z" fill="#000000" p-id="6622"></path><path d="M592.792116 743.94342c4.214725 0 7.68742 3.175884 8.162319 7.271884l0.059362 0.949797v27.929971a8.221681 8.221681 0 0 1-16.384 0.949798l-0.059362-0.949798v-27.929971c0-4.541217 3.680464-8.221681 8.221681-8.221681zM592.792116 809.702029c4.214725 0 7.68742 3.190725 8.162319 7.271884l0.059362 0.964638v115.103536a8.221681 8.221681 0 0 1-16.384 0.964638l-0.059362-0.964638v-115.103536c0-4.541217 3.680464-8.221681 8.221681-8.221681z" fill="#FFFFFF" p-id="6623"></path><path d="M914.357797 975.085449a17.808696 17.808696 0 1 1 0-35.632232 17.808696 17.808696 0 0 1 0 35.632232" fill="#378BCB" p-id="6624"></path><path d="M30.497391 588.651594a17.808696 17.808696 0 1 1 0-35.632232 17.808696 17.808696 0 0 1 0 35.632232M323.910493 154.445913l-12.02087 6.589217a23.477797 23.477797 0 0 0-9.334724 9.319884l-6.574377 12.02087-6.589218-12.02087a23.418435 23.418435 0 0 0-9.319884-9.319884l-12.020869-6.589217 12.020869-6.574377c3.932754-2.151884 7.168-5.38713 9.319884-9.334724l6.589218-12.02087 6.574377 12.02087c2.166725 3.947594 5.38713 7.182841 9.319884 9.334724l12.03571 6.574377z" fill="#E84756" p-id="6625"></path><path d="M1150.21913 588.651594l-12.03571 6.574377a23.477797 23.477797 0 0 0-9.319884 9.334725l-6.589217 12.020869-6.574377-12.020869a23.418435 23.418435 0 0 0-9.319884-9.334725l-12.03571-6.574377 12.020869-6.589217c3.947594-2.137043 7.182841-5.37229 9.334725-9.319884l6.574377-12.02087 6.589217 12.02087c2.151884 3.947594 5.38713 7.182841 9.319884 9.319884l12.02087 6.589217zM1042.639768 125.477101l-12.020869 6.589218a23.418435 23.418435 0 0 0-9.319885 9.319884l-6.589217 12.020869-6.574377-12.020869a23.448116 23.448116 0 0 0-9.334724-9.319884l-12.02087-6.589218 12.02087-6.574376c3.932754-2.151884 7.182841-5.38713 9.334724-9.319884l6.574377-12.02087 6.589217 12.02087c2.151884 3.932754 5.38713 7.168 9.305044 9.319884l12.03571 6.574376z" fill="#FCFCFC" p-id="6626"></path><path d="M598.327652 1.676986a30.630957 30.630957 0 1 0 0 61.261913 30.630957 30.630957 0 0 0 0-61.261913z m0 16.443362a14.187594 14.187594 0 1 1 0 28.375188 14.187594 14.187594 0 0 1 0-28.375188z" fill="#3B84C5" p-id="6627"></path></svg>