<?xml version="1.0" standalone="no"?><!DOCTYPE svg PUBLIC "-//W3C//DTD SVG 1.1//EN" "http://www.w3.org/Graphics/SVG/1.1/DTD/svg11.dtd"><svg t="1609769633317" class="icon" viewBox="0 0 1174 1024" version="1.1" xmlns="http://www.w3.org/2000/svg" p-id="6306" xmlns:xlink="http://www.w3.org/1999/xlink" width="146.75" height="128"><defs><style type="text/css"></style></defs><path d="M1037.402353 117.007059H264.282353a59.783529 59.783529 0 1 0 0 119.582117h34.755765v583.890824a83.546353 83.546353 0 0 0 83.561411 83.546353h536.470589a83.546353 83.546353 0 0 0 83.561411-83.546353V236.574118h34.755765a59.783529 59.783529 0 1 0 0-119.567059" fill="#E6464B" p-id="6307"></path><path d="M1037.402353 108.679529H264.282353a68.126118 68.126118 0 0 0-68.126118 68.126118l0.030118 2.093177a68.126118 68.126118 0 0 0 68.096 66.032941h26.413176v575.548235a91.888941 91.888941 0 0 0 91.904 91.888941h536.470589l2.409411-0.030117a91.888941 91.888941 0 0 0 89.494589-91.858824v-575.548235h26.413176a68.126118 68.126118 0 1 0 0-136.252236zM264.282353 125.364706H1037.402353a51.440941 51.440941 0 1 1 0 102.881882h-43.098353v592.233412a75.203765 75.203765 0 0 1-75.218824 75.203765H382.614588a75.203765 75.203765 0 0 1-75.218823-75.203765V228.246588h-43.098353a51.440941 51.440941 0 1 1 0-102.881882z" fill="#000000" p-id="6308"></path><path d="M892.792471 217.133176H119.687529a59.783529 59.783529 0 1 0 0 119.567059h34.770824v583.890824a83.546353 83.546353 0 0 0 83.546353 83.546353h536.485647a83.546353 83.546353 0 0 0 83.531294-83.546353V336.715294h34.770824a59.783529 59.783529 0 1 0 0-119.582118" fill="#388CCC" p-id="6309"></path><path d="M867.764706 208.790588a68.126118 68.126118 0 0 1 2.078118 136.222118l-2.078118 0.045176H841.336471v575.533177a91.888941 91.888941 0 0 1-89.47953 91.858823l-2.409412 0.030118h-98.590117a8.342588 8.342588 0 0 1-0.978824-16.624941l0.978824-0.060235h98.590117a75.203765 75.203765 0 0 0 75.173647-72.990118l0.030118-2.213647V336.715294c0-4.291765 3.222588-7.815529 7.378824-8.282353l0.963764-0.060235h34.770824a51.440941 51.440941 0 0 0 1.882353-102.851765l-1.882353-0.045176H94.644706a51.440941 51.440941 0 0 0-1.867294 102.851764l1.882353 0.045177h34.770823c4.276706 0 7.800471 3.207529 8.282353 7.363765l0.060235 0.978823v153.584941a8.342588 8.342588 0 0 1-16.64 0.978824l-0.060235-0.978824v-145.257411H94.659765a68.126118 68.126118 0 0 1-68.096-66.048l-0.030118-2.078118a68.126118 68.126118 0 0 1 66.048-68.096l2.078118-0.030118h773.104941zM129.430588 552.237176c4.276706 0 7.800471 3.222588 8.282353 7.378824l0.060235 0.963765v360.011294a75.203765 75.203765 0 0 0 72.990118 75.173647l2.213647 0.030118h324.954353a8.342588 8.342588 0 0 1 0.978824 16.624941l-0.978824 0.060235H212.976941a91.888941 91.888941 0 0 1-91.858823-89.479529l-0.045177-2.409412V560.579765c0-4.608 3.749647-8.342588 8.357647-8.342589z" fill="#000000" p-id="6310"></path><path d="M303.284706 485.797647H269.402353c-25.6-1.490824-39.122824-15.028706-40.613647-40.628706 1.490824-24.033882 15.028706-36.833882 40.613647-38.354823h81.242353c24.048941 1.505882 36.833882 15.058824 38.354823 40.613647v329.426823c-1.505882 27.075765-15.811765 40.613647-42.87247 40.613647-27.075765 0-41.381647-13.537882-42.872471-40.613647V485.797647z" fill="#FFFFFF" p-id="6311"></path><path d="M351.171765 398.486588H269.432471c-30.192941 1.761882-47.194353 17.814588-48.941177 46.170353v0.993883l0.165647 2.273882c2.439529 28.416 19.245176 44.513882 48.308706 46.185412l25.976471 0.015058v282.729412c1.746824 31.954824 19.696941 48.956235 51.215058 48.956236 31.503059 0 49.438118-16.986353 51.2-48.489412V447.427765c-1.761882-30.162824-17.799529-47.134118-46.155294-48.941177z m-81.257412 16.655059h80.414118-0.195765c19.742118 1.249882 29.289412 11.339294 30.554353 32.783059l-0.015059 328.929882c-1.249882 22.196706-11.896471 32.271059-34.529882 32.271059-22.648471 0-33.295059-10.089412-34.544942-32.722823l0.015059-298.962824h-42.194823l-1.987765-0.150588c-18.883765-1.671529-28.461176-11.248941-30.147765-30.569412l-0.105411-1.505882-0.045177 0.466823c1.204706-19.727059 11.309176-29.259294 32.783059-30.539294z" fill="#000000" p-id="6312"></path><path d="M616.899765 490.315294h-2.258824l-76.709647 160.180706h78.968471V490.315294z m-139.896471 236.905412c-24.079059-1.490824-37.601882-12.769882-40.613647-33.852235 0-9.020235 3.011765-18.040471 9.035294-27.075765l128.602353-232.402824c12.032-24.048941 31.593412-35.328 58.669177-33.837176 43.610353 3.011765 66.168471 27.075765 67.689411 72.192v178.251294h9.035294c25.554824 1.520941 39.092706 14.320941 40.613648 38.369882-1.520941 24.079059-15.058824 36.864-40.613648 38.354824h-9.035294v49.633882c0 27.075765-14.305882 40.613647-42.87247 40.613647-28.596706 1.475765-42.134588-12.016941-40.613647-40.613647v-49.633882h-139.896471z" fill="#FFFFFF" p-id="6313"></path><path d="M566.573176 430.170353c13.101176-26.247529 34.861176-39.333647 63.924706-38.550588l2.785883 0.105411c47.058824 3.267765 72.839529 29.906824 75.339294 77.839059l0.105412 2.680471v169.923765h1.174588c28.114824 1.671529 44.830118 16.173176 48.037647 41.788235l0.240941 2.16847 0.165647 2.213648v1.054117c-1.731765 27.632941-17.889882 43.580235-46.576941 46.004706l-2.349177 0.150588h-0.692705v41.306353c0 30.343529-16.534588 47.375059-46.426353 48.850824l-2.153412 0.075294-2.198588 0.030118c-32.828235 1.686588-50.386824-15.104-49.483294-46.817883l0.090352-2.138353v-41.306353h-132.065882c-26.217412-1.611294-42.736941-14.185412-47.585882-36.668235l-0.421647-2.138353-0.346353-2.183529-0.090353-1.189647c0-9.938824 3.011765-19.727059 8.628706-28.852706l1.445647-2.258824 128.451764-232.086588z m63.322353-21.880471c-21.744941-0.542118-37.135059 8.342588-47.48047 27.557647l-1.084235 2.093177-128.963765 232.990118c-4.668235 7.002353-7.152941 13.793882-7.574588 20.449882l-0.045177 1.445647 0.195765 1.159529c2.650353 14.607059 11.535059 22.482824 27.979294 24.515765l2.002823 0.210824 2.078118 0.150588h148.239059v58.428235c-1.264941 23.642353 8.176941 33.069176 32.271059 31.834353 23.341176 0 33.897412-9.336471 34.499764-30.328471l0.030118-1.942588v-57.97647h16.896c20.736-1.204706 30.855529-10.164706 32.617412-28.656942l0.105412-1.355294-0.105412-1.355294c-1.656471-17.242353-10.571294-26.202353-28.220235-28.310588l-1.92753-0.210824-1.987765-0.150588h-17.377882V472.545882c-1.340235-40.056471-19.832471-60.566588-57.494588-63.969882l-2.334118-0.180706-2.319059-0.090353z m-4.653176 73.667765v176.880941h-100.562824l84.705883-176.880941h15.856941z m-16.685177 40.357647l-57.374117 119.838118h57.374117v-119.838118z" fill="#000000" p-id="6314"></path><path d="M255.382588 226.168471a8.342588 8.342588 0 0 1 0.978824 16.624941l-0.978824 0.060235h-88.997647a8.342588 8.342588 0 0 1-0.963765-16.624941l0.963765-0.060235h88.997647zM451.433412 226.168471a8.342588 8.342588 0 0 1 0.978823 16.624941l-0.978823 0.060235h-137.652706a8.342588 8.342588 0 0 1-0.978824-16.624941l0.978824-0.060235h137.652706zM397.899294 124.656941a8.342588 8.342588 0 0 1 0.978824 16.64l-0.978824 0.045177h-88.982588a8.342588 8.342588 0 0 1-0.978824-16.624942l0.978824-0.060235h88.997647zM593.965176 124.656941a8.342588 8.342588 0 0 1 0.963765 16.64l-0.963765 0.045177H456.282353a8.342588 8.342588 0 0 1-0.963765-16.624942l0.963765-0.060235h137.667765z" fill="#F2F2F2" p-id="6315"></path><path d="M915.215059 1000.207059a18.070588 18.070588 0 1 1 0-36.156235 18.070588 18.070588 0 0 1 0 36.156235" fill="#378BCB" p-id="6316"></path><path d="M18.371765 608.105412a18.070588 18.070588 0 1 1 0-36.171294 18.070588 18.070588 0 0 1 0 36.171294M316.084706 167.514353l-12.197647 6.671059a23.823059 23.823059 0 0 0-9.472 9.456941l-6.656 12.212706-6.686118-12.197647a23.823059 23.823059 0 0 0-9.456941-9.472l-12.212706-6.671059 12.197647-6.686118c3.990588-2.183529 7.288471-5.466353 9.472-9.456941l6.686118-12.197647 6.656 12.197647c2.183529 3.990588 5.481412 7.273412 9.472 9.456941l12.197647 6.686118z" fill="#E84756" p-id="6317"></path><path d="M1154.56 608.105412l-12.227765 6.671059a23.898353 23.898353 0 0 0-9.456941 9.456941l-6.671059 12.212706-6.671059-12.197647a23.898353 23.898353 0 0 0-9.472-9.487059l-12.197647-6.656 12.197647-6.686118c3.990588-2.183529 7.273412-5.466353 9.472-9.456941l6.671059-12.197647 6.671059 12.197647c2.183529 3.990588 5.466353 7.273412 9.456941 9.456941l12.212706 6.686118z" fill="#E9434D" p-id="6318"></path><path d="M1045.398588 138.119529l-12.212706 6.686118a23.823059 23.823059 0 0 0-9.456941 9.441882l-6.671059 12.212706-6.686117-12.197647a23.792941 23.792941 0 0 0-9.456941-9.456941l-12.212706-6.686118 12.212706-6.686117a23.792941 23.792941 0 0 0 9.456941-9.456941l6.686117-12.197647 6.671059 12.197647c2.183529 3.990588 5.466353 7.288471 9.456941 9.456941l12.212706 6.686117z" fill="#FCFCFC" p-id="6319"></path><path d="M594.522353 12.483765a31.081412 31.081412 0 1 0 0.015059 62.162823 31.081412 31.081412 0 0 0 0-62.162823z m0 16.685176a14.411294 14.411294 0 1 1 0 28.80753 14.411294 14.411294 0 0 1 0-28.80753z" fill="#3B84C5" p-id="6320"></path></svg>