<?xml version="1.0" standalone="no"?><!DOCTYPE svg PUBLIC "-//W3C//DTD SVG 1.1//EN" "http://www.w3.org/Graphics/SVG/1.1/DTD/svg11.dtd"><svg t="1609769663649" class="icon" viewBox="0 0 1024 1024" version="1.1" xmlns="http://www.w3.org/2000/svg" p-id="7113" xmlns:xlink="http://www.w3.org/1999/xlink" width="128" height="128"><defs><style type="text/css"></style></defs><path d="M154.99159 396.563692v66.376205a19.08841 19.08841 0 1 0 0 38.176821v166.990769h787.928615V396.563692H154.99159z" fill="#3985C6" p-id="7114"></path><path d="M916.703179 396.563692v245.313641H155.004718v26.230154h787.915487V396.563692z" fill="#236EA0" p-id="7115"></path><path d="M320.630154 282.624h-98.198975v-24.799179c0-8.139487 6.616615-14.742974 14.756103-14.742975H305.887179c8.139487 0 14.756103 6.603487 14.756103 14.742975v24.799179z" fill="#E7E22B" p-id="7116"></path><path d="M821.261128 275.350974a91.963077 91.963077 0 0 1 91.936821 89.731282l0.026256 2.231795V595.364103a7.273026 7.273026 0 0 1-14.493538 0.853333l-0.052513-0.853333V367.327179a77.417026 77.417026 0 0 0-75.355898-77.403897l-2.061128-0.026256H196.056615a77.417026 77.417026 0 0 0-77.403897 75.355897l-0.026256 2.061128v343.368205a77.417026 77.417026 0 0 0 75.355897 77.403898l2.074256 0.026256h625.204513a77.417026 77.417026 0 0 0 77.390769-75.355897l0.026257-2.074257v-55.309128a7.273026 7.273026 0 0 1 14.506667-0.853333l0.039384 0.853333v55.309128a91.963077 91.963077 0 0 1-89.731282 91.949949l-2.231795 0.026257H196.056615a91.963077 91.963077 0 0 1-91.949948-89.731283l-0.026257-2.231794V367.300923a91.963077 91.963077 0 0 1 89.731282-91.93682l2.231795-0.026257h625.217641z" fill="#000000" p-id="7117"></path><path d="M901.710769 389.290667a7.273026 7.273026 0 0 1 0.853334 14.506666l-0.853334 0.039385H162.264615a7.273026 7.273026 0 0 1-0.840205-14.493539l0.840205-0.052512h739.446154zM901.710769 660.834462a7.273026 7.273026 0 0 1 0.853334 14.493538l-0.853334 0.052513H162.264615a7.273026 7.273026 0 0 1-0.840205-14.506667l0.840205-0.039384h739.446154z" fill="#000000" p-id="7118"></path><path d="M867.643077 532.33559C867.643077 637.111795 782.70359 722.051282 677.927385 722.051282s-189.728821-84.939487-189.728821-189.72882 84.939487-189.728821 189.728821-189.728821 189.741949 84.939487 189.741948 189.728821" fill="#F6FCF4" p-id="7119"></path><path d="M882.202256 546.881641c0 104.789333-84.939487 189.728821-189.741948 189.728821-104.789333 0-189.728821-84.939487-189.728821-189.728821s84.939487-189.728821 189.728821-189.72882S882.215385 442.092308 882.215385 546.881641" fill="#E7424A" p-id="7120"></path><path d="M814.749538 401.854359a188.914872 188.914872 0 0 1 44.714667 122.289231c0 104.789333-84.939487 189.728821-189.72882 189.72882a188.914872 188.914872 0 0 1-122.289231-44.701538 189.269333 189.269333 0 0 0 145.014154 67.43959c104.789333 0 189.741949-84.939487 189.741948-189.728821 0-58.184205-26.217026-110.22441-67.452718-145.014154" fill="#C32E35" p-id="7121"></path><path d="M781.561436 546.881641a89.088 89.088 0 1 1-178.189128 0 89.088 89.088 0 1 1 178.189128 0" fill="#EADE25" p-id="7122"></path><path d="M677.914256 435.961436a96.361026 96.361026 0 1 1-94.404923 115.790769 7.273026 7.273026 0 0 1 14.244103-2.92759 81.828103 81.828103 0 1 0-0.73518-28.829538 7.273026 7.273026 0 0 1-14.388512-2.179282 96.387282 96.387282 0 0 1 95.284512-81.854359z" fill="#000000" p-id="7123"></path><path d="M677.914256 335.333744c108.806564 0 197.014974 88.195282 197.014975 197.001846 0 11.894154-1.050256 23.657026-3.150769 35.209846a7.273026 7.273026 0 0 1-14.309744-2.586257 183.66359 183.66359 0 0 0 2.914461-32.623589c0-100.772103-81.696821-182.455795-182.468923-182.455795a182.41641 182.41641 0 0 0-161.135589 96.781128 7.273026 7.273026 0 1 1-12.839385-6.852923 196.962462 196.962462 0 0 1 173.974974-104.474256zM488.185436 525.062564c4.017231 0 7.273026 3.255795 7.273026 7.273026 0 100.772103 81.683692 182.455795 182.455794 182.455795 71.207385 0 134.971077-41.156923 164.955898-104.369231a7.273026 7.273026 0 1 1 13.141333 6.235897 197.014974 197.014974 0 0 1-178.097231 112.679385c-108.806564 0-197.001846-88.195282-197.001846-197.001846 0-4.017231 3.255795-7.273026 7.273026-7.273026z" fill="#000000" p-id="7124"></path><path d="M552.237949 427.37559a7.273026 7.273026 0 1 1 11.250872 9.216c-14.349128 17.513026-24.786051 37.428513-30.273642 59.890872a7.273026 7.273026 0 0 1-14.125948-3.452718c6.025846-24.681026 17.473641-46.526359 33.148718-65.654154zM612.811487 378.446769a7.273026 7.273026 0 0 1 6.852923 12.8l-0.761436 0.393846c-0.393846 0.196923-1.260308 0.617026-2.520615 1.286564-2.179282 1.142154-4.647385 2.546872-7.364923 4.201026-7.811282 4.75241-15.963897 10.581333-24.024615 17.513026a7.273026 7.273026 0 0 1-9.491693-11.027693c8.690872-7.483077 17.486769-13.771487 25.954462-18.917743l3.242666-1.929846a104.500513 104.500513 0 0 1 8.113231-4.332308z" fill="#FFFFFF" p-id="7125"></path><path d="M283.175385 235.795692H214.514872c-12.169846 0-22.029128 9.87241-22.029128 22.029129v24.799179c0 4.017231 3.255795 7.273026 7.273025 7.273026h98.198975a7.273026 7.273026 0 0 0 7.259897-7.273026v-24.799179c0-12.156718-9.846154-22.029128-22.016-22.029129z m0 14.55918l0.827077 0.039384a7.483077 7.483077 0 0 1 6.656 7.430565v17.513025H207.031795V257.837949a7.483077 7.483077 0 0 1 7.483077-7.483077h68.686769z" fill="#000000" p-id="7126"></path><path d="M166.203077 409.901949c3.72841 0 6.80041 2.809436 7.220513 6.43282l0.052513 0.840205v33.634462a7.273026 7.273026 0 0 1-14.493539 0.853333l-0.052513-0.853333v-33.634462c0-4.017231 3.255795-7.273026 7.273026-7.273025zM166.203077 508.087795c3.72841 0 6.80041 2.809436 7.220513 6.43282l0.052513 0.840206v127.291076a7.273026 7.273026 0 0 1-14.493539 0.840206l-0.052513-0.840206v-127.291076c0-4.017231 3.255795-7.273026 7.273026-7.273026z" fill="#FFFFFF" p-id="7127"></path><path d="M472.562872 439.007179a15.438769 15.438769 0 1 1-30.851282 0 15.438769 15.438769 0 0 1 30.851282 0" fill="#050B14" p-id="7128"></path><path d="M941.069128 220.868923a15.753846 15.753846 0 1 1-31.507692 0 15.753846 15.753846 0 0 1 31.507692 0" fill="#378BCB" p-id="7129"></path><path d="M599.223795 1002.745436a15.753846 15.753846 0 1 1-31.507692 0 15.753846 15.753846 0 0 1 31.507692 0M215.118769 743.187692l5.828923 10.633846c1.90359 3.492103 4.765538 6.340923 8.244513 8.257641l10.646974 5.815795-10.646974 5.828923a20.795077 20.795077 0 0 0-8.244513 8.231385l-5.828923 10.646974-5.815795-10.633846a20.795077 20.795077 0 0 0-8.244512-8.244513l-10.646975-5.828923 10.646975-5.815795a20.742564 20.742564 0 0 0 8.244512-8.244512l5.815795-10.646975z" fill="#E84756" p-id="7130"></path><path d="M599.223795 12.222359l5.828923 10.646974c1.90359 3.478974 4.765538 6.340923 8.244513 8.244513l10.633846 5.815795-10.633846 5.828923a20.860718 20.860718 0 0 0-8.244513 8.244513l-5.828923 10.633846-5.815795-10.633846a20.795077 20.795077 0 0 0-8.244513-8.244513l-10.646974-5.828923 10.633846-5.815795a20.742564 20.742564 0 0 0 8.257641-8.244513l5.815795-10.633846zM189.505641 107.388718l5.815795 10.633846c1.90359 3.478974 4.765538 6.354051 8.244513 8.257641l10.646974 5.802667-10.633846 5.828923a20.768821 20.768821 0 0 0-8.257641 8.244513l-5.815795 10.646974-5.828923-10.633846a20.768821 20.768821 0 0 0-8.244513-8.257641l-10.633846-5.828923 10.633846-5.802667c3.478974-1.90359 6.340923-4.778667 8.244513-8.257641l5.828923-10.633846z" fill="#FCFCFC" p-id="7131"></path><path d="M107.073641 473.337436a27.096615 27.096615 0 1 0 0 54.206359 27.096615 27.096615 0 0 0 0-54.206359z m0 14.546051a12.550564 12.550564 0 1 1 0 25.114257 12.550564 12.550564 0 0 1 0-25.114257z" fill="#3B84C5" p-id="7132"></path></svg>