<?xml version="1.0" standalone="no"?><!DOCTYPE svg PUBLIC "-//W3C//DTD SVG 1.1//EN" "http://www.w3.org/Graphics/SVG/1.1/DTD/svg11.dtd"><svg t="1609769667136" class="icon" viewBox="0 0 1192 1024" version="1.1" xmlns="http://www.w3.org/2000/svg" p-id="7272" xmlns:xlink="http://www.w3.org/1999/xlink" width="149" height="128"><defs><style type="text/css"></style></defs><path d="M932.757015 912.414567l-514.154985 46.400955a40.348657 40.348657 0 0 1-43.81803-36.573612L308.224 184.625672a40.348657 40.348657 0 0 1 36.558328-43.81803l514.139702-46.400955a40.348657 40.348657 0 0 1 43.81803 36.573612l66.56 737.616238a40.348657 40.348657 0 0 1-36.558329 43.81803" fill="#3F82B8" p-id="7273"></path><path d="M858.173134 85.970149L344.033433 132.371104a48.815761 48.815761 0 0 0-44.24597 53.018747l66.56 737.616239a48.815761 48.815761 0 0 0 53.018746 44.230686l514.139701-46.400955a48.815761 48.815761 0 0 0 44.230687-53.003463L911.176597 130.216119a48.815761 48.815761 0 0 0-53.018746-44.24597z m36.145672 45.759045l66.56 737.616239a31.881552 31.881552 0 0 1-28.88597 34.632597l-514.154985 46.400955a31.881552 31.881552 0 0 1-34.617314-28.88597L316.645254 183.861493a31.881552 31.881552 0 0 1 28.88597-34.617314L859.701493 102.843224a31.881552 31.881552 0 0 1 34.632597 28.88597z" fill="#050B14" p-id="7274"></path><path d="M413.176358 281.065075c4.340537 0 7.916896 3.255403 8.40597 7.473671l0.061135 0.97815v103.317014a8.467104 8.467104 0 0 1-16.888359 0.993433l-0.04585-0.978149v-103.317015c0-4.69206 3.790328-8.482388 8.467104-8.482388zM413.176358 442.994627c4.340537 0 7.916896 3.270687 8.40597 7.488955l0.061135 0.978149V768.611343a8.467104 8.467104 0 0 1-16.888359 0.993433l-0.04585-0.993433V451.477015c0-4.676776 3.790328-8.467104 8.467104-8.467105z" fill="#FFFFFF" p-id="7275"></path><path d="M969.758567 996.550687H453.525015a40.348657 40.348657 0 0 1-40.348657-40.363941V215.574925a40.348657 40.348657 0 0 1 40.348657-40.36394h516.233552a40.36394 40.36394 0 0 1 40.36394 40.36394v740.611821a40.36394 40.36394 0 0 1-40.348656 40.348657" fill="#E7444F" p-id="7276"></path><path d="M969.758567 175.210985h-40.914149a40.348657 40.348657 0 0 1 40.348657 40.36394v740.611821a40.348657 40.348657 0 0 1-40.348657 40.348657h40.914149a40.36394 40.36394 0 0 0 40.36394-40.348657V215.574925a40.36394 40.36394 0 0 0-40.348656-40.36394" fill="#C32C3C" p-id="7277"></path><path d="M928.829134 166.743881a48.831045 48.831045 0 0 1 48.800478 46.951164l0.030567 1.87988v740.611821a48.831045 48.831045 0 0 1-46.951164 48.785194l-1.879881 0.045851H412.595582a48.831045 48.831045 0 0 1-48.785194-46.966448l-0.030567-1.864597V471.574925a8.467104 8.467104 0 0 1 16.873075-0.993432l0.061134 0.993432v484.611821c0 17.056478 13.403701 30.995104 30.246209 31.850985l1.635343 0.045851h516.233552a31.896836 31.896836 0 0 0 31.850985-30.261492l0.045851-1.635344V215.574925a31.896836 31.896836 0 0 0-30.261492-31.850985l-1.635344-0.04585H412.595582a31.896836 31.896836 0 0 0-31.835701 30.261492l-0.045851 1.635343v109.934806a8.467104 8.467104 0 0 1-16.873075 0.97815l-0.061134-0.97815v-109.934806a48.831045 48.831045 0 0 1 46.951164-48.800477l1.864597-0.030567h516.233552z" fill="#050B14" p-id="7278"></path><path d="M372.246925 350.911045c4.340537 0 7.916896 3.270687 8.405971 7.488955l0.061134 0.978149v66.94209a8.467104 8.467104 0 0 1-16.873075 0.993433l-0.061134-0.993433v-66.94209c0-4.676776 3.790328-8.467104 8.467104-8.467104z" fill="#050B14" p-id="7279"></path><path d="M537.615284 394.83606h-34.877135c-13.602388 0-24.637134-11.034746-24.637134-24.637135V335.321791c0-13.602388 11.019463-24.637134 24.637134-24.637134h34.877135c13.602388 0 24.621851 11.034746 24.62185 24.637134v34.877134c0 13.602388-11.034746 24.637134-24.62185 24.637135" fill="#FFFFFF" p-id="7280"></path><path d="M537.615284 302.217552h-34.877135c-18.279164 0-33.104239 14.825075-33.104239 33.104239v34.877134c0 18.279164 14.825075 33.104239 33.104239 33.104239h34.877135c18.263881 0 33.088955-14.825075 33.088955-33.104239V335.321791c0-18.279164-14.825075-33.104239-33.088955-33.104239z m-34.877135 16.934209h34.877135c8.925612 0 16.154746 7.244418 16.154746 16.17003v34.877134c0 8.925612-7.229134 16.17003-16.154746 16.17003h-34.877135a16.17003 16.17003 0 0 1-16.17003-16.17003V335.321791c0-8.925612 7.244418-16.17003 16.17003-16.17003z" fill="#000000" p-id="7281"></path><path d="M605.000597 457.804418a88.644776 88.644776 0 0 0-169.663045 0h169.663045z" fill="#FFFFFF" p-id="7282"></path><path d="M520.176716 386.368955a97.111881 97.111881 0 0 0-92.939462 68.99009 8.467104 8.467104 0 0 0 8.100298 10.912477h169.663045a8.467104 8.467104 0 0 0 8.100299-10.912477 97.111881 97.111881 0 0 0-92.92418-68.99009z m2.353672 16.964776a80.192955 80.192955 0 0 1 69.234627 44.077851l0.947582 1.925731h-145.087045l0.947582-1.925731a80.177672 80.177672 0 0 1 71.603582-44.108418l2.353672 0.030567z" fill="#000000" p-id="7283"></path><path d="M450.98794 626.794985h455.114508v-15.512836H450.98794zM450.98794 701.608119h455.114508V686.08H450.98794zM450.98794 776.40597h455.114508v-15.528119H450.98794zM450.98794 851.188537h184.182448v-15.528119H450.98794z" fill="#FFFCFF" p-id="7284"></path><path d="M941.590925 1007.860537a18.340299 18.340299 0 1 1 0-36.69588 18.340299 18.340299 0 0 1 0 36.69588" fill="#378BCB" p-id="7285"></path><path d="M31.346627 609.891343a18.340299 18.340299 0 1 1 0-36.69588 18.340299 18.340299 0 0 1 0 36.69588M333.533612 162.739582l-12.410269 6.770627a24.117493 24.117493 0 0 0-9.582806 9.59809l-6.78591 12.379701-6.785911-12.379701a24.117493 24.117493 0 0 0-9.582806-9.59809l-12.410268-6.770627 12.410268-6.78591c4.034866-2.216119 7.38197-5.54794 9.582806-9.59809l6.785911-12.394985 6.78591 12.379702c2.200836 4.065433 5.54794 7.397254 9.582806 9.613373l12.410269 6.78591z" fill="#E84756" p-id="7286"></path><path d="M1184.492896 609.891343l-12.379702 6.785911a24.117493 24.117493 0 0 0-9.613373 9.598089l-6.770627 12.379702-6.78591-12.379702a24.117493 24.117493 0 0 0-9.59809-9.598089l-12.379701-6.785911 12.379701-6.770627c4.050149-2.216119 7.38197-5.54794 9.59809-9.613373l6.78591-12.379701 6.770627 12.379701c2.216119 4.065433 5.54794 7.397254 9.598089 9.613373l12.394986 6.770627z" fill="#EBDE23" p-id="7287"></path><path d="M1073.717493 132.90603l-12.394986 6.770627a24.117493 24.117493 0 0 0-9.598089 9.613373l-6.785911 12.379701-6.78591-12.379701a24.071642 24.071642 0 0 0-9.582806-9.613373l-12.394985-6.770627 12.379701-6.785911c4.065433-2.216119 7.397254-5.54794 9.59809-9.598089l6.78591-12.379702 6.785911 12.379702c2.216119 4.050149 5.54794 7.38197 9.598089 9.598089l12.379702 6.785911z" fill="#FCFCFC" p-id="7288"></path><path d="M616.127045 5.395104a31.545313 31.545313 0 1 0 0 63.090627 31.545313 31.545313 0 0 0 0-63.090627z m0 16.934209a14.611104 14.611104 0 1 1 0 29.222209 14.611104 14.611104 0 0 1 0-29.222209z" fill="#3B84C5" p-id="7289"></path></svg>