<?xml version="1.0" standalone="no"?><!DOCTYPE svg PUBLIC "-//W3C//DTD SVG 1.1//EN" "http://www.w3.org/Graphics/SVG/1.1/DTD/svg11.dtd"><svg t="1609769670763" class="icon" viewBox="0 0 1024 1024" version="1.1" xmlns="http://www.w3.org/2000/svg" p-id="7427" xmlns:xlink="http://www.w3.org/1999/xlink" width="128" height="128"><defs><style type="text/css"></style></defs><path d="M875.730051 849.302974H263.903179a58.958769 58.958769 0 0 1-58.958769-58.971897V205.193846c0-32.557949 26.387692-58.971897 58.958769-58.971897h611.826872a58.958769 58.958769 0 0 1 58.95877 58.971897V790.317949c0 32.557949-26.387692 58.971897-58.95877 58.971897" fill="#E7444F" p-id="7428"></path><path d="M875.730051 146.208821H836.923077a58.958769 58.958769 0 0 1 58.958769 58.971897V790.317949c0 32.557949-26.387692 58.971897-58.958769 58.971897h38.793846a58.958769 58.958769 0 0 0 58.958769-58.971897V205.193846c0-32.557949-26.387692-58.971897-58.958769-58.971897" fill="#C12D3A" p-id="7429"></path><path d="M306.464821 138.948923a7.273026 7.273026 0 0 1 0.853333 14.493539l-0.853333 0.052512h-42.561642a51.685744 51.685744 0 0 0-51.685743 51.685744 7.273026 7.273026 0 0 1-14.546051 0 66.231795 66.231795 0 0 1 64.315077-66.205539l1.916717-0.026256h42.561642zM204.94441 263.483077c3.72841 0 6.80041 2.822564 7.220513 6.43282l0.052513 0.853334V790.317949a51.685744 51.685744 0 0 0 49.939692 51.659487l1.746051 0.039385h611.826872a51.698872 51.698872 0 0 0 51.659487-49.952821l0.026257-1.746051v-124.980513a7.273026 7.273026 0 0 1 14.493538-0.853333l0.052513 0.840205v124.993641a66.244923 66.244923 0 0 1-64.328205 66.205538l-1.90359 0.039385H263.903179a66.231795 66.231795 0 0 1-66.205538-64.328205l-0.026256-1.916718V270.769231c0-4.017231 3.255795-7.273026 7.273025-7.273026zM875.730051 138.935795a66.244923 66.244923 0 0 1 66.205539 64.328205l0.026256 1.916718v372.841026a7.273026 7.273026 0 0 1-14.493538 0.853333l-0.052513-0.853333v-372.841026a51.698872 51.698872 0 0 0-49.952821-51.659487l-1.732923-0.039385H359.187692a7.273026 7.273026 0 0 1-0.853333-14.493538l0.853333-0.052513h516.529231z" fill="#000000" p-id="7430"></path><path d="M421.927385 173.489231a7.273026 7.273026 0 0 1 0.853333 14.493538l-0.853333 0.052513h-81.224206a7.273026 7.273026 0 0 1-0.840205-14.493538l0.840205-0.052513h81.224206zM298.443487 173.489231a7.273026 7.273026 0 1 1 0 14.546051 51.685744 51.685744 0 0 0-51.646359 49.952821l-0.026256 1.732923v95.599589a7.273026 7.273026 0 0 1-14.506667 0.840206l-0.039384-0.840206V239.721026a66.231795 66.231795 0 0 1 66.218666-66.231795z" fill="#FFFFFF" p-id="7431"></path><path d="M560.114872 578.034872a80.265846 80.265846 0 0 1-80.265846-80.278975 80.265846 80.265846 0 1 1 160.531692 0 80.265846 80.265846 0 0 1-80.265846 80.265847m0-363.913847c-156.658872 0-283.648 126.989128-283.648 283.648 0 156.658872 126.989128 283.661128 283.648 283.661129 156.658872 0 283.661128-127.002256 283.661128-283.661129S716.773744 214.121026 560.114872 214.121026" fill="#3A81C3" p-id="7432"></path><path d="M544.361026 419.052308a80.278974 80.278974 0 1 0 0 157.407179 80.278974 80.278974 0 0 1 0-157.407179" fill="#126A9B" p-id="7433"></path><path d="M560.114872 214.107897c-5.290667 0-10.528821 0.157538-15.753846 0.446359 149.320205 8.178872 267.894154 131.820308 267.894153 283.201641 0 151.368205-118.573949 275.035897-267.894153 283.201641 5.225026 0.288821 10.463179 0.459487 15.753846 0.459488 156.658872 0 283.661128-127.002256 283.661128-283.661129S716.773744 214.121026 560.114872 214.121026" fill="#126A9B" p-id="7434"></path><path d="M544.426667 206.834872c160.689231 0 290.934154 130.244923 290.934154 290.921025 0 160.689231-130.244923 290.934154-290.921026 290.934154-160.689231 0-290.921026-130.258051-290.921026-290.921025 0-160.689231 130.231795-290.934154 290.921026-290.934154z m0 14.546051c-152.628513 0-276.374974 123.733333-276.374975 276.374974 0 152.641641 123.746462 276.388103 276.388103 276.388103s276.374974-123.746462 276.374974-276.388103-123.733333-276.374974-276.374974-276.374974z m0 188.836103a87.538872 87.538872 0 1 1 0.013128 175.077743 87.538872 87.538872 0 0 1 0-175.077743z m0 14.546051a72.992821 72.992821 0 1 0 0.013128 145.985641 72.992821 72.992821 0 0 0 0-145.985641z" fill="#000000" p-id="7435"></path><path d="M370.123487 330.358154a7.273026 7.273026 0 0 1 0.853334 10.24 275.219692 275.219692 0 0 0-65.24718 178.372923 7.273026 7.273026 0 1 1-14.546051 0c0-69.710769 24.602256-135.614359 68.686769-187.75959a7.273026 7.273026 0 0 1 10.24-0.853333z m100.640821-72.467692a7.273026 7.273026 0 0 1-3.570872 9.636102 275.82359 275.82359 0 0 0-55.66359 33.962667 7.273026 7.273026 0 0 1-8.99282-11.434667 292.168205 292.168205 0 0 1 58.591179-35.748102 7.273026 7.273026 0 0 1 9.636103 3.584z m111.340307-29.853539a7.273026 7.273026 0 0 1 0 14.546051 277.267692 277.267692 0 0 0-65.115897 7.719385 7.273026 7.273026 0 1 1-3.413333-14.139077 291.826872 291.826872 0 0 1 68.52923-8.126359z" fill="#FFFFFF" p-id="7436"></path><path d="M574.660923 497.755897a23.630769 23.630769 0 1 1-47.261538 0 23.630769 23.630769 0 0 1 47.261538 0" fill="#FFFFFF" p-id="7437"></path><path d="M798.628103 260.765538a32.728615 32.728615 0 1 1 0-65.45723 32.728615 32.728615 0 0 1 0 65.45723m0-87.276307a54.547692 54.547692 0 1 0 0 109.095384 54.547692 54.547692 0 0 0 0-109.095384" fill="#427BCC" p-id="7438"></path><path d="M813.620513 228.036923a15.005538 15.005538 0 1 1-29.997949 0 15.005538 15.005538 0 0 1 29.997949 0" fill="#FFFFFF" p-id="7439"></path><path d="M791.643897 262.590359v252.875487l-135.273025 83.495385 9.544205 15.465025 143.872-88.799179h0.039385V262.603487z" fill="#42494D" p-id="7440"></path><path d="M813.462974 258.953846h-25.455589v254.477128l-136.651488 84.33559 13.377641 21.661539 145.801847-89.993847 2.927589 0.498872V258.953846z m-7.273025 7.259898v257.352205l-139.093334 85.858461-5.737025-9.294769 133.92082-82.642051v-251.273846h10.896411z" fill="#000000" p-id="7441"></path><path d="M765.111795 580.621128l-109.476103 71.404308a6.157128 6.157128 0 0 1-8.520205-1.798564l-28.028718-42.994872a6.144 6.144 0 0 1 1.785436-8.520205l109.515487-71.417436a6.157128 6.157128 0 0 1 7.299282 0.433231l8.349539 6.957948a57.475282 57.475282 0 0 1 18.28759 27.753026l3.347692 11.277128a6.170256 6.170256 0 0 1-2.546872 6.905436" fill="#EBDE23" p-id="7442"></path><path d="M728.405333 524.235487l-109.528615 71.430564a9.780513 9.780513 0 0 0-2.835692 13.561436l28.028718 42.981744a9.793641 9.793641 0 0 0 13.548307 2.861948l109.489231-71.404307a9.819897 9.819897 0 0 0 4.043487-10.988308l-3.347692-11.264a61.111795 61.111795 0 0 0-19.429744-29.538461l-8.349538-6.944821a9.793641 9.793641 0 0 0-11.618462-0.695795z m6.957949 6.275282l8.349539 6.957949a53.825641 53.825641 0 0 1 17.119179 26.006974l3.347692 11.264a2.533744 2.533744 0 0 1-1.050256 2.835693l-109.489231 71.404307a2.520615 2.520615 0 0 1-3.478974-0.735179l-28.028718-42.994872a2.507487 2.507487 0 0 1 0.722051-3.478974l109.528615-71.443693a2.520615 2.520615 0 0 1 2.980103 0.183795z" fill="#000000" p-id="7443"></path><path d="M921.284923 217.665641a15.753846 15.753846 0 1 1-31.533949 0 15.753846 15.753846 0 0 1 31.533949 0" fill="#378BCB" p-id="7444"></path><path d="M579.43959 999.529026a15.753846 15.753846 0 1 1-31.520821 0 15.753846 15.753846 0 0 1 31.520821 0M195.347692 739.971282l5.815795 10.646974c1.90359 3.478974 4.765538 6.340923 8.244513 8.244513l10.633846 5.815795-10.633846 5.828923a20.781949 20.781949 0 0 0-8.244513 8.244513l-5.815795 10.646974-5.828923-10.646974a20.742564 20.742564 0 0 0-8.244513-8.244513l-10.646974-5.828923 10.633846-5.815795a20.742564 20.742564 0 0 0 8.257641-8.244513l5.828923-10.646974z" fill="#E84756" p-id="7445"></path><path d="M579.43959 9.005949l5.828923 10.646974c1.890462 3.478974 4.765538 6.340923 8.244513 8.257641l10.633846 5.802667-10.633846 5.828923a20.742564 20.742564 0 0 0-8.244513 8.244513l-5.828923 10.646974-5.815795-10.633846a20.781949 20.781949 0 0 0-8.257641-8.257641l-10.633846-5.828923 10.633846-5.802667c3.492103-1.916718 6.354051-4.778667 8.257641-8.257641l5.815795-10.633846zM169.721436 104.172308l5.815795 10.633846c1.90359 3.478974 4.765538 6.354051 8.257641 8.257641l10.633846 5.815795-10.633846 5.828923a20.716308 20.716308 0 0 0-8.257641 8.244513l-5.815795 10.633846-5.828923-10.633846a20.703179 20.703179 0 0 0-8.244513-8.244513l-10.633846-5.828923 10.633846-5.815795c3.478974-1.90359 6.340923-4.778667 8.244513-8.244513l5.828923-10.646974z" fill="#FCFCFC" p-id="7446"></path><path d="M87.289436 470.121026a27.096615 27.096615 0 1 0 0 54.206359 27.096615 27.096615 0 0 0 0-54.206359z m0 14.546051a12.563692 12.563692 0 1 1-0.013128 25.127385 12.563692 12.563692 0 0 1 0-25.127385z" fill="#3B84C5" p-id="7447"></path></svg>