<?xml version="1.0" standalone="no"?><!DOCTYPE svg PUBLIC "-//W3C//DTD SVG 1.1//EN" "http://www.w3.org/Graphics/SVG/1.1/DTD/svg11.dtd"><svg t="1609769674653" class="icon" viewBox="0 0 1192 1024" version="1.1" xmlns="http://www.w3.org/2000/svg" p-id="7585" xmlns:xlink="http://www.w3.org/1999/xlink" width="149" height="128"><defs><style type="text/css"></style></defs><path d="M906.041313 936.042985h-581.540298a54.272 54.272 0 0 1-54.256716-54.256716V275.196179a54.272 54.272 0 0 1 54.256716-54.272h581.540298a54.272 54.272 0 0 1 54.272 54.272v606.559522a54.272 54.272 0 0 1-54.256716 54.272" fill="#3A81C3" p-id="7586"></path><path d="M906.041313 220.939463h-29.90997a54.103881 54.103881 0 0 1 17.866508 40.165253v606.559523a54.272 54.272 0 0 1-54.272 54.272H288.095522c9.628657 8.742209 22.359881 14.106746 36.405493 14.106746h581.540298a54.272 54.272 0 0 0 54.256717-54.256716V275.196179a54.272 54.272 0 0 0-54.256717-54.272" fill="#1663A2" p-id="7587"></path><path d="M864.408836 170.839881a62.754388 62.754388 0 0 1 62.723821 60.67582l0.030567 2.078568V840.138507a62.754388 62.754388 0 0 1-60.675821 62.723821l-2.078567 0.030568h-24.560717a8.467104 8.467104 0 0 1-0.993432-16.873075l0.993432-0.061134h24.560717a45.820179 45.820179 0 0 0 45.789612-43.970866l0.030567-1.83403V233.578985a45.820179 45.820179 0 0 0-43.970866-45.789612l-1.83403-0.030567h-581.540298a45.804896 45.804896 0 0 0-45.774328 43.970866l-0.030568 1.834029V840.138507a45.820179 45.820179 0 0 0 43.955582 45.774329l1.849314 0.045851h487.546269a8.467104 8.467104 0 0 1 0.978149 16.873074l-0.978149 0.061135h-487.546269a62.754388 62.754388 0 0 1-62.708537-60.675821l-0.030568-2.078568V233.594269a62.754388 62.754388 0 0 1 60.675821-62.723821l2.063284-0.030567h581.540298z" fill="#000000" p-id="7588"></path><path d="M755.452179 471.406806H453.586149a26.348896 26.348896 0 0 1-26.348895-26.348896v-21.397014c0-14.54997 11.798925-26.348896 26.348895-26.348896h301.86603c14.54997 0 26.348896 11.798925 26.348896 26.348896v21.397014c0 14.54997-11.798925 26.348896-26.348896 26.348896" fill="#FEFEFE" p-id="7589"></path><path d="M755.452179 388.844896H453.586149A34.831284 34.831284 0 0 0 418.770149 423.660896v21.397014a34.816 34.816 0 0 0 34.816 34.816h301.86603a34.816 34.816 0 0 0 34.816-34.816v-21.397014a34.816 34.816 0 0 0-34.816-34.816zM453.586149 405.779104h301.86603c9.873194 0 17.881791 8.008597 17.881791 17.881792v21.397014a17.881791 17.881791 0 0 1-17.881791 17.881791H453.586149a17.881791 17.881791 0 0 1-17.881791-17.881791v-21.397014c0-9.873194 8.008597-17.881791 17.881791-17.881792z" fill="#000000" p-id="7590"></path><path d="M384.534925 434.359403a32.462328 32.462328 0 1 1-64.909373 0 32.462328 32.462328 0 0 1 64.909373 0" fill="#FEFEFE" p-id="7591"></path><path d="M352.087881 393.42997a40.914149 40.914149 0 1 0 0 81.843582 40.914149 40.914149 0 0 0 0-81.843582z m0 16.934209a23.995224 23.995224 0 1 1 0 47.990448 23.995224 23.995224 0 0 1 0-47.990448z" fill="#000000" p-id="7592"></path><path d="M755.452179 615.546269H453.586149a26.348896 26.348896 0 0 1-26.348895-26.348896v-21.397015c0-14.54997 11.798925-26.348896 26.348895-26.348895h301.86603c14.54997 0 26.348896 11.798925 26.348896 26.348895v21.397015c0 14.54997-11.798925 26.348896-26.348896 26.348896" fill="#FEFEFE" p-id="7593"></path><path d="M755.452179 532.984358H453.586149A34.831284 34.831284 0 0 0 418.770149 567.785075v21.397015a34.816 34.816 0 0 0 34.816 34.816h301.86603a34.816 34.816 0 0 0 34.816-34.816v-21.397015a34.816 34.816 0 0 0-34.816-34.816zM453.586149 549.903284h301.86603c9.873194 0 17.881791 8.008597 17.881791 17.881791v21.397015a17.881791 17.881791 0 0 1-17.881791 17.881791H453.586149a17.881791 17.881791 0 0 1-17.881791-17.881791v-21.397015c0-9.873194 8.008597-17.881791 17.881791-17.881791z" fill="#000000" p-id="7594"></path><path d="M384.534925 578.483582a32.447045 32.447045 0 1 1-64.909373 0 32.447045 32.447045 0 0 1 64.909373 0" fill="#FEFEFE" p-id="7595"></path><path d="M352.087881 537.569433a40.914149 40.914149 0 1 0 0 81.843582 40.914149 40.914149 0 0 0 0-81.843582z m0 16.934209a23.995224 23.995224 0 1 1 0 47.990448 23.995224 23.995224 0 0 1 0-47.990448z" fill="#000000" p-id="7596"></path><path d="M755.452179 759.670448H453.586149a26.364179 26.364179 0 0 1-26.348895-26.348896v-21.397015c0-14.534687 11.798925-26.333612 26.348895-26.333612h301.86603c14.54997 0 26.348896 11.798925 26.348896 26.333612v21.397015c0 14.54997-11.798925 26.348896-26.348896 26.348896" fill="#FEFEFE" p-id="7597"></path><path d="M755.452179 677.123821H453.586149A34.831284 34.831284 0 0 0 418.770149 711.909254v21.397015a34.831284 34.831284 0 0 0 34.816 34.816h301.86603a34.816 34.816 0 0 0 34.816-34.816v-21.397015a34.816 34.816 0 0 0-34.816-34.800717z m-301.86603 16.934209h301.86603c9.873194 0 17.881791 8.008597 17.881791 17.881791v21.397015a17.881791 17.881791 0 0 1-17.881791 17.881791H453.586149a17.881791 17.881791 0 0 1-17.881791-17.881791v-21.397015c0-9.873194 8.008597-17.881791 17.881791-17.881791z" fill="#000000" p-id="7598"></path><path d="M384.534925 722.623045a32.447045 32.447045 0 1 1-64.909373 0 32.447045 32.447045 0 0 1 64.909373 0" fill="#FEFEFE" p-id="7599"></path><path d="M352.087881 681.708896a40.914149 40.914149 0 1 0 0 81.843582 40.914149 40.914149 0 0 0 0-81.843582z m0 16.934208a23.995224 23.995224 0 1 1 0 47.975165 23.995224 23.995224 0 0 1 0-47.990448z" fill="#000000" p-id="7600"></path><path d="M458.553313 286.72a34.128239 34.128239 0 1 1-68.271761-0.015284 34.128239 34.128239 0 0 1 68.271761 0" fill="#FEFEFE" p-id="7601"></path><path d="M424.425075 244.109373a42.610627 42.610627 0 1 0-0.015284 85.20597 42.610627 42.610627 0 0 0 0-85.20597z m0 16.934209a25.676418 25.676418 0 1 1-0.030568 51.352836 25.676418 25.676418 0 0 1 0.015284-51.352836z" fill="#000000" p-id="7602"></path><path d="M431.715343 271.711522h-14.611104c-9.995463 0-18.095761-8.100299-18.095761-18.095761V176.219701c0-10.010746 8.100299-18.111045 18.095761-18.111044h14.611104c9.995463 0 18.111045 8.100299 18.111045 18.111044v77.39606c0 9.995463-8.100299 18.095761-18.111045 18.095761" fill="#FEFEFE" p-id="7603"></path><path d="M431.715343 149.641552h-14.611104c-14.672239 0-26.562866 11.890627-26.562866 26.578149v77.39606c0 14.672239 11.890627 26.562866 26.562866 26.562866h14.611104c14.672239 0 26.578149-11.890627 26.57815-26.562866V176.219701c0-14.672239-11.90591-26.578149-26.57815-26.578149z m-14.611104 16.934209h14.611104a9.628657 9.628657 0 0 1 9.628657 9.628657v77.411343a9.628657 9.628657 0 0 1-9.628657 9.628657h-14.611104a9.628657 9.628657 0 0 1-9.628657-9.628657V176.219701a9.628657 9.628657 0 0 1 9.628657-9.628656z" fill="#000000" p-id="7604"></path><path d="M607.782209 286.72a34.128239 34.128239 0 1 1-68.271761-0.015284 34.128239 34.128239 0 0 1 68.271761 0" fill="#FEFEFE" p-id="7605"></path><path d="M573.65397 244.109373a42.610627 42.610627 0 1 0 0 85.20597 42.610627 42.610627 0 0 0 0-85.20597z m0 16.934209a25.676418 25.676418 0 1 1-0.015283 51.352836 25.676418 25.676418 0 0 1 0.015283-51.352836z" fill="#000000" p-id="7606"></path><path d="M580.959522 271.711522h-14.626388c-9.980179 0-18.080478-8.100299-18.080477-18.095761V176.219701c0-10.010746 8.100299-18.111045 18.080477-18.111044h14.626388c9.995463 0 18.095761 8.100299 18.095762 18.111044v77.39606c0 9.995463-8.100299 18.095761-18.095762 18.095761" fill="#FEFEFE" p-id="7607"></path><path d="M580.959522 149.641552h-14.626388c-14.672239 0-26.547582 11.890627-26.547582 26.578149v77.39606c0 14.672239 11.890627 26.562866 26.547582 26.562866h14.626388c14.672239 0 26.562866-11.890627 26.562866-26.562866V176.219701c0-14.672239-11.890627-26.578149-26.562866-26.578149z m-14.626388 16.934209h14.626388a9.628657 9.628657 0 0 1 9.628657 9.628657v77.411343a9.628657 9.628657 0 0 1-9.628657 9.628657h-14.626388a9.628657 9.628657 0 0 1-9.613373-9.628657V176.219701a9.628657 9.628657 0 0 1 9.628657-9.628656z" fill="#000000" p-id="7608"></path><path d="M757.026388 286.72a34.128239 34.128239 0 1 1-68.271761-0.015284 34.128239 34.128239 0 0 1 68.271761 0" fill="#FEFEFE" p-id="7609"></path><path d="M722.898149 244.109373a42.610627 42.610627 0 1 0-0.015283 85.20597 42.610627 42.610627 0 0 0 0-85.20597z m0 16.934209a25.676418 25.676418 0 1 1-0.030567 51.352836 25.676418 25.676418 0 0 1 0.030567-51.352836z" fill="#000000" p-id="7610"></path><path d="M730.188418 271.711522h-14.611105c-9.995463 0-18.080478-8.100299-18.080477-18.095761V176.219701c0-10.010746 8.100299-18.111045 18.080477-18.111044h14.611105c9.995463 0 18.111045 8.100299 18.111045 18.111044v77.39606c0 9.995463-8.100299 18.095761-18.111045 18.095761" fill="#FEFEFE" p-id="7611"></path><path d="M730.188418 149.641552h-14.611105c-14.672239 0-26.562866 11.890627-26.562865 26.578149v77.39606c0 14.672239 11.890627 26.562866 26.562865 26.562866h14.611105c14.672239 0 26.578149-11.890627 26.578149-26.562866V176.219701c0-14.672239-11.90591-26.578149-26.578149-26.578149zM715.577313 166.591045h14.611105a9.628657 9.628657 0 0 1 9.628657 9.628656v77.411344a9.628657 9.628657 0 0 1-9.628657 9.628656h-14.611105a9.628657 9.628657 0 0 1-9.628656-9.628656V176.219701a9.628657 9.628657 0 0 1 9.628656-9.628656z" fill="#000000" p-id="7612"></path><path d="M618.87809 747.963224a14.030328 14.030328 0 0 1-3.515224-19.532418l45.927164-66.025075a14.030328 14.030328 0 0 1 23.032358 15.986627L638.395224 744.463284a14.015045 14.015045 0 0 1-19.517134 3.515223" fill="#BC4A54" p-id="7613"></path><path d="M657.805373 659.975642l-45.91188 66.025074a18.263881 18.263881 0 0 0 4.585074 25.431881l1.299105 0.825313a18.294448 18.294448 0 0 0 24.102209-5.395104l45.91188-66.055642a18.263881 18.263881 0 0 0-3.438806-24.560716l-1.130985-0.855881a18.263881 18.263881 0 0 0-25.416597 4.585075z m20.586985 2.368955c4.432239 3.102567 5.532657 9.200716 2.445373 13.632955l-45.91188 66.055642a9.781493 9.781493 0 0 1-12.822926 2.949731l-0.978149-0.611343a9.766209 9.766209 0 0 1-2.292537-13.52597l45.927164-66.025075a9.796776 9.796776 0 0 1 13.632955-2.47594z" fill="#000000" p-id="7614"></path><path d="M742.904358 658.569552l-83.861015-59.81994-33.19594 94.192716 38.789731 27.663284z" fill="#F3DA25" p-id="7615"></path><path d="M651.065313 595.937433l-33.19594 94.192716a8.467104 8.467104 0 0 0 3.056717 9.705075l38.805014 27.663283c3.056716 2.200836 7.213851 2.093851 10.178866-0.25982l78.25194-62.020777a8.467104 8.467104 0 0 0-0.336238-13.52597l-83.861015-59.835224a8.467104 8.467104 0 0 0-12.899344 4.080717z m12.226866 16.231164l65.536 46.767761-64.450866 51.077732-28.427462-20.26603 27.342328-77.579463z" fill="#000000" p-id="7616"></path><path d="M1006.20991 268.975761l-67.706268-47.073433 20.541134-29.558447 67.706269 47.073432z" fill="#FCE01A" p-id="7617"></path><path d="M952.090746 187.514269l-20.556418 29.543164a8.467104 8.467104 0 0 0 2.124418 11.783642l67.721553 47.073432a8.467104 8.467104 0 0 0 11.783641-2.109134l20.556418-29.543164a8.467104 8.467104 0 0 0-2.124418-11.783642l-67.706268-47.073433a8.467104 8.467104 0 0 0-11.798926 2.109135z m9.063164 16.59797l53.828777 37.444776-10.881911 15.635104-53.828776-37.414209 10.88191-15.665671z" fill="#000000" p-id="7618"></path><path d="M720.697313 666.333612l-55.204298-38.361791a30.414328 30.414328 0 0 1-7.611224-42.350806L905.506388 229.406567a30.429612 30.429612 0 0 1 42.335522-7.611224l55.204299 38.377075a30.414328 30.414328 0 0 1 7.611224 42.335522L763.048119 658.722388a30.444896 30.444896 0 0 1-42.350806 7.611224" fill="#E7444F" p-id="7619"></path><path d="M898.552358 224.576955L650.927761 580.776119a38.896716 38.896716 0 0 0 9.720358 54.134448l55.219582 38.377075a38.912 38.912 0 0 0 54.119165-9.735642L1017.611463 307.352836a38.896716 38.896716 0 0 0-9.720359-54.134448l-55.204298-38.361791a38.896716 38.896716 0 0 0-54.134448 9.720358z m44.475224 4.172418l55.189015 38.361791c9.949612 6.938746 12.410269 20.617552 5.50209 30.567164L756.078806 653.892776a21.962507 21.962507 0 0 1-30.567164 5.50209l-55.204299-38.392359a21.962507 21.962507 0 0 1-5.486806-30.55188l247.624597-356.214448a21.962507 21.962507 0 0 1 30.567165-5.486806z" fill="#000000" p-id="7620"></path><path d="M1009.434746 233.563701a15.528119 15.528119 0 1 1-31.025671 0.015284 15.528119 15.528119 0 0 1 31.025671-0.015284" fill="#3A93CE" p-id="7621"></path><path d="M829.088478 365.629134a8.467104 8.467104 0 0 1 14.473552 8.742209l-0.550209 0.917015-65.627702 94.544239a8.467104 8.467104 0 0 1-14.458268-8.742209l0.550209-0.917015 65.612418-94.544239zM749.18591 482.869493a8.467104 8.467104 0 0 1 14.825075 8.100298l-0.458507 0.871164-17.652538 28.228776a8.467104 8.467104 0 0 1-14.825074-8.100298l0.458507-0.886448 17.652537-28.213492z" fill="#FFFFFF" p-id="7622"></path><path d="M760.984836 887.364776v-141.694089a37.169672 37.169672 0 0 1 37.184955-37.184956h120.526328L760.984836 887.364776z" fill="#FFFFFF" p-id="7623"></path><path d="M918.696119 700.018627h-120.526328a45.636776 45.636776 0 0 0-45.65206 45.65206v141.678806c0 7.80991 9.659224 11.462687 14.825075 5.609074l157.711284-178.863761a8.467104 8.467104 0 0 0-6.357971-14.060896z m-18.752955 16.934209l-130.491224 148.006209v-119.288358c0-15.864358 12.853493-28.717851 28.717851-28.717851h101.788657z" fill="#000000" p-id="7624"></path><path d="M941.896597 1005.277612a18.340299 18.340299 0 1 1 0-36.711164 18.340299 18.340299 0 0 1 0 36.711164" fill="#378BCB" p-id="7625"></path><path d="M31.637015 607.308418a18.340299 18.340299 0 1 1 0.015284-36.695881 18.340299 18.340299 0 0 1 0 36.695881M333.824 160.141373l-12.379701 6.785911a24.117493 24.117493 0 0 0-9.628657 9.598089l-6.755343 12.379702-6.770627-12.379702a24.117493 24.117493 0 0 0-9.613373-9.598089l-12.379702-6.785911 12.379702-6.78591c4.050149-2.200836 7.38197-5.532657 9.613373-9.582806l6.770627-12.379702 6.770626 12.379702c2.216119 4.050149 5.54794 7.38197 9.59809 9.582806l12.394985 6.78591z" fill="#E84756" p-id="7626"></path><path d="M1184.783284 607.308418l-12.379702 6.78591a24.117493 24.117493 0 0 0-9.598089 9.59809l-6.770627 12.379701-6.785911-12.379701a24.117493 24.117493 0 0 0-9.598089-9.59809l-12.394985-6.78591 12.379701-6.785911c4.065433-2.200836 7.397254-5.532657 9.628657-9.582806l6.770627-12.394985 6.770627 12.379702c2.216119 4.065433 5.54794 7.397254 9.598089 9.598089l12.379702 6.785911zM1074.023164 130.323104l-12.394985 6.770627a24.19391 24.19391 0 0 0-9.613373 9.59809l-6.770627 12.379701-6.78591-12.379701a24.178627 24.178627 0 0 0-9.582806-9.59809l-12.394985-6.770627 12.379701-6.78591c4.065433-2.216119 7.38197-5.54794 9.59809-9.59809l6.78591-12.379701 6.770627 12.379701c2.231403 4.050149 5.563224 7.38197 9.613373 9.59809l12.379702 6.78591z" fill="#FCFCFC" p-id="7627"></path><path d="M616.432716 2.812179a31.545313 31.545313 0 1 0 0 63.090627 31.545313 31.545313 0 0 0 0-63.090627z m0 16.934209a14.611104 14.611104 0 1 1 0 29.237493 14.611104 14.611104 0 0 1 0-29.237493z" fill="#3B84C5" p-id="7628"></path></svg>