<?xml version="1.0" standalone="no"?><!DOCTYPE svg PUBLIC "-//W3C//DTD SVG 1.1//EN" "http://www.w3.org/Graphics/SVG/1.1/DTD/svg11.dtd"><svg t="1609769558014" class="icon" viewBox="0 0 1024 1024" version="1.1" xmlns="http://www.w3.org/2000/svg" p-id="5376" xmlns:xlink="http://www.w3.org/1999/xlink" width="128" height="128"><defs><style type="text/css"></style></defs><path d="M507.168821 189.991385l-253.505642 118.075077c12.077949 277.412103 231.542154 498.517333 253.505642 498.517333 21.950359 0 241.427692-221.105231 253.479384-498.517333l-253.479384-118.075077z" fill="#3A80C3" p-id="5377"></path><path d="M507.168821 101.087179L180.578462 253.203692c15.517538 357.402256 298.285949 642.284308 326.590359 642.284308 28.291282 0 311.059692-284.882051 326.590358-642.284308L507.168821 101.074051z" fill="#FFFFFF" p-id="5378"></path><path d="M504.096821 94.483692L177.493333 246.626462a7.273026 7.273026 0 0 0-4.201025 6.905435c6.931692 159.573333 66.599385 317.190564 159.691487 458.843898l4.017231 6.065231 4.069743 6.038974c65.194667 96.216615 144.187077 178.281026 166.071795 178.281026 22.816821 0 107.572513-89.048615 174.171898-190.385231 93.092103-141.653333 152.759795-299.270564 159.691487-458.843898a7.273026 7.273026 0 0 0-4.201026-6.905435L510.227692 94.483692a7.273026 7.273026 0 0 0-6.130871 0z m3.072 14.624821l319.081025 148.62441 0.236308-4.831179c-6.80041 156.672-65.549128 311.860513-157.315282 451.478974-34.527179 52.512821-71.916308 99.682462-106.496 136.008205l-5.382564 5.592615c-24.891077 25.468718-45.869949 42.246564-50.123487 42.246565-4.568615 0-28.330667-19.272205-55.51918-47.83918-34.579692-36.325744-71.981949-83.495385-106.496-136.008205l-3.807179-5.815795C253.046154 562.399179 196.187897 411.700513 188.153436 259.413333l-0.065641-1.693538L507.168821 109.108513z" fill="#000000" p-id="5379"></path><path d="M514.441846 209.316103l-253.492513 118.075076c12.064821 277.398974 231.529026 498.517333 253.492513 498.517334 21.950359 0 241.427692-221.105231 253.479385-498.517334l-253.479385-118.075076z" fill="#3A81C3" p-id="5380" data-spm-anchor-id="a313x.7781069.0.i7"></path><path d="M514.441846 209.316103l-253.492513 118.075076c12.064821 277.398974 231.529026 498.517333 253.492513 498.517334V209.316103z" fill="#E8414C" p-id="5381" data-spm-anchor-id="a313x.7781069.0.i5" class=""></path><path d="M504.096821 183.401026l-253.492513 118.075077a7.273026 7.273026 0 0 0-4.201026 6.905435c5.408821 124.192821 51.817026 246.797128 124.219077 356.955898l3.702154 5.579487c51.423179 76.852513 114.753641 142.939897 132.844308 142.939898 18.300718 0 82.930872-67.702154 134.695384-145.723077l1.837949-2.78318c72.402051-110.171897 118.810256-232.776205 124.219077-356.955897a7.273026 7.273026 0 0 0-4.201026-6.918564L510.227692 183.401026a7.273026 7.273026 0 0 0-6.130871 0z m3.072 14.611692l245.970051 114.582974-0.393846 7.089231c-7.640615 117.208615-52.460308 233.078154-121.19959 337.670564-26.742154 40.684308-55.702974 77.193846-82.471385 105.32759l-3.334564 3.465846c-19.298462 19.849846-35.866256 33.161846-38.570666 33.161846-2.861949 0-21.215179-14.874256-41.918359-36.627692-26.755282-28.120615-55.729231-64.643282-82.471385-105.32759l-3.465846-5.316923c-66.783179-103.200821-110.22441-217.127385-117.720616-332.366769l-0.420102-7.089231 245.996308-114.569846z" fill="#000000" p-id="5382"></path><path d="M514.441846 760.438154c-20.296205 0-208.909128-188.639179-247.138461-436.000821l-6.354052 2.953846c12.064821 277.398974 231.529026 498.517333 253.492513 498.517334 21.950359 0 241.427692-221.105231 253.479385-498.517334l-6.354052-2.953846c-38.229333 247.361641-226.855385 436.000821-247.125333 436.000821" fill="#080500" p-id="5383"></path><path d="M498.701128 469.398974v333.285744" fill="#E8414C" p-id="5384"></path><path d="M498.701128 193.942974v105.616411" fill="#E8414C" p-id="5385"></path><path d="M528.987897 277.674667l21.136411 65.050256h68.397948L563.2 382.949744l21.13641 65.063384-55.335384-40.211692-55.335385 40.211692 21.13641-65.063384-55.348513-40.211693h68.397949z" fill="#EFDC28" p-id="5386"></path><path d="M502.547692 335.451897h-63.107282l-0.827077 0.052513c-6.432821 0.65641-8.927179 9.137231-3.452718 13.115077l51.068718 37.08718-19.495384 60.04841-0.210052 0.761436c-1.378462 6.354051 5.907692 11.342769 11.395282 7.364923l51.068718-37.100308 51.05559 37.100308 0.65641 0.433231c5.618872 3.282051 12.629333-2.126769 10.528821-8.55959L571.733333 385.706667l51.068718-37.08718 0.643282-0.525128c4.818051-4.332308 1.837949-12.642462-4.923077-12.642462h-63.133538L535.893333 275.429744a7.273026 7.273026 0 0 0-13.824 0l-19.508512 60.022153z m26.427077-34.238359l14.230975 43.769436 0.301948 0.787693c1.181538 2.56 3.741538 4.227282 6.616616 4.227282h46.014359l-37.23159 27.044102-0.722051 0.603898a7.273026 7.273026 0 0 0-1.916718 7.535589l14.204718 43.769436-37.218462-27.044102-0.787692-0.498872a7.273026 7.273026 0 0 0-7.758769 0.498872l-37.23159 27.044102 14.217846-43.769436 0.236308-0.905846a7.273026 7.273026 0 0 0-2.875077-7.220513l-37.23159-27.044102h46.027487c3.150769 0 5.933949-2.034872 6.918564-5.028103l14.204718-43.769436z" fill="#080600" p-id="5387"></path><path d="M518.695385 450.56a5.842051 5.842051 0 1 1-8.507077-8.034462 5.842051 5.842051 0 0 1 8.493948 8.034462" fill="#080600" p-id="5388"></path><path d="M941.344821 216.72041a15.753846 15.753846 0 1 1-31.520821 0 15.753846 15.753846 0 0 1 31.520821 0" fill="#378BCB" p-id="5389"></path><path d="M599.499487 998.583795a15.753846 15.753846 0 1 1-31.52082 0 15.753846 15.753846 0 0 1 31.52082 0M215.40759 739.026051l5.815795 10.646975c1.90359 3.478974 4.765538 6.340923 8.244512 8.244512l10.646975 5.815795-10.633846 5.828923a20.716308 20.716308 0 0 0-8.257641 8.244513l-5.815795 10.633846-5.828923-10.633846a20.716308 20.716308 0 0 0-8.244513-8.244513l-10.646975-5.828923 10.646975-5.815795a20.742564 20.742564 0 0 0 8.244513-8.244512l5.828923-10.646975z" fill="#E84756" p-id="5390"></path><path d="M599.499487 8.060718l5.828923 10.646974c1.90359 3.478974 4.765538 6.340923 8.244513 8.244513l10.646974 5.815795-10.646974 5.828923a20.781949 20.781949 0 0 0-8.244513 8.244513l-5.828923 10.633846-5.815795-10.633846a20.716308 20.716308 0 0 0-8.244513-8.244513l-10.646974-5.828923 10.646974-5.815795a20.742564 20.742564 0 0 0 8.244513-8.244513l5.815795-10.633846zM189.781333 103.213949l5.828923 10.660102c1.890462 3.465846 4.75241 6.340923 8.231385 8.231385l10.646974 5.828923-10.633846 5.828923a20.703179 20.703179 0 0 0-8.244513 8.244513l-5.828923 10.633846-5.828923-10.633846a20.703179 20.703179 0 0 0-8.244513-8.244513l-10.633846-5.828923 10.633846-5.828923c3.478974-1.890462 6.340923-4.765538 8.244513-8.231385l5.828923-10.660102z" fill="#FCFCFC" p-id="5391"></path><path d="M107.349333 469.175795a27.109744 27.109744 0 1 0 0 54.219487 27.109744 27.109744 0 0 0 0-54.219487z m0 14.546051a12.563692 12.563692 0 1 1 0 25.127385 12.563692 12.563692 0 0 1 0-25.127385z" fill="#3B84C5" p-id="5392"></path></svg>