<?xml version="1.0" standalone="no"?><!DOCTYPE svg PUBLIC "-//W3C//DTD SVG 1.1//EN" "http://www.w3.org/Graphics/SVG/1.1/DTD/svg11.dtd"><svg t="1609769687711" class="icon" viewBox="0 0 1024 1024" version="1.1" xmlns="http://www.w3.org/2000/svg" p-id="8089" xmlns:xlink="http://www.w3.org/1999/xlink" width="128" height="128"><defs><style type="text/css"></style></defs><path d="M914.116923 332.327385c-36.365128-78.401641-176.836923-136.835282-344.707282-136.835282-158.562462 0-292.758974 52.132103-337.788718 123.982769-30.483692 42.443487-50.386051 112.114872-50.386051 190.949743 0 129.339077 53.523692 234.207179 119.519179 234.20718 62.148923 0 113.191385-92.973949 118.967795-211.784205 45.462974 10.633846 96.177231 16.607179 149.687795 16.607179 52.932923 0 103.108923-5.855179 148.204308-16.278974 5.828923 118.678974 56.845128 211.442872 118.941538 211.442872 66.008615 0 119.519179-104.854974 119.51918-234.20718 0-71.286154-16.278974-135.128615-41.944616-178.084102" fill="#E7444F" p-id="8090"></path><path d="M689.729641 507.431385c-45.095385 10.410667-95.271385 16.252718-148.191179 16.252718-53.523692 0-104.224821-5.960205-149.700924-16.594052-5.763282 118.810256-56.805744 211.757949-118.967794 211.757949-12.734359 0-24.982974-3.938462-36.496411-11.158974 18.602667 23.341949 40.671179 36.929641 64.393846 36.929641 62.135795 0 113.191385-92.947692 118.954667-211.771077 45.476103 10.633846 96.177231 16.607179 149.687795 16.607179a675.446154 675.446154 0 0 0 122.932513-11.080205 442.289231 442.289231 0 0 1-2.625641-30.943179M914.116923 332.327385c-9.478564-20.453744-26.125128-39.529026-48.41682-56.582564 8.638359 9.846154 15.583179 20.151795 20.532512 30.825025 25.665641 42.955487 41.970872 106.784821 41.970872 178.097231 0 129.352205-53.523692 234.194051-119.532308 234.194051-12.760615 0-25.022359-3.977846-36.562051-11.237743 18.589538 23.394462 40.697436 36.995282 64.446359 36.995282 66.008615 0 119.519179-104.854974 119.51918-234.20718 0-71.286154-16.278974-135.128615-41.944616-178.084102" fill="#BB2D36" p-id="8091"></path><path d="M554.86359 180.946051c166.347487 0 310.022564 57.147077 350.129231 138.568205l1.010871 2.100513 1.654154 2.835693c25.429333 44.281436 40.434872 106.692923 41.117539 173.896205l0.026256 4.804923c0 20.217436-1.286564 40.132923-3.807179 59.365743a7.273026 7.273026 0 1 1-14.441026-1.890461c2.454974-18.602667 3.702154-37.874872 3.702154-57.475282 0-66.599385-14.519795-128.446359-39.187693-171.401846l-1.732923-2.966975-0.354461-0.669538c-35.446154-76.406154-175.130256-132.621128-338.116923-132.621128-121.527795 0-232.159179 31.205744-295.13518 81.171692a7.273026 7.273026 0 0 1-9.045333-11.395282c65.837949-52.237128 179.606974-84.322462 304.180513-84.322462zM187.352615 351.271385a7.273026 7.273026 0 0 1 13.403898 5.658256c-17.197949 40.736821-26.781538 91.989333-26.781539 146.221949 0 125.833846 51.580718 226.921026 112.246154 226.921025 56.044308 0 105.051897-86.856205 111.510975-201.373538l0.603897-12.196103 8.493949 1.982359c45.988103 10.765128 96.229744 16.410256 148.033641 16.410257 48.679385 0 95.967179-4.988718 139.684102-14.519795l6.87918-1.549128 8.467692-1.956103 0.433231 8.690872c5.710769 116.066462 55.138462 204.511179 111.681641 204.511179 40.342974 0 78.322872-45.397333 98.277743-117.90441a7.273026 7.273026 0 0 1 14.020924 3.859692c-21.477744 78.086564-63.750564 128.590769-112.298667 128.59077-64.14441 0-115.908923-88.090256-125.269333-203.85477l-0.433231-5.907692-5.054359 1.089641c-40.697436 8.402051-84.191179 12.996923-128.918975 13.469539l-7.469948 0.039384c-47.878564 0-94.457436-4.739282-137.780513-13.784615l-5.146256-1.129026-0.157539 2.376205c-8.441436 116.447179-59.628308 205.837128-123.562667 207.661949l-2.008615 0.039385c-71.351795 0-126.792205-108.635897-126.792205-241.467077 0-56.109949 9.964308-109.292308 27.93682-151.880205z" fill="#000000" p-id="8092"></path><path d="M469.412103 340.650667h-39.555282v-39.555282H359.844103v39.555282h-39.542154v69.999589h39.542154v39.555282h70.012718V410.650256h39.555282z" fill="#3A81C3" p-id="8093"></path><path d="M419.866256 287.914667H335.294359v39.542154h-39.555282v84.545641h39.542154v39.56841h84.571897v-39.555282h39.542154v-84.545641H419.84V287.901538z m-14.559179 14.546051v39.555282h39.555282v55.453538h-39.542154v39.542154h-55.479795v-39.542154h-39.542154V341.989744h39.555282V302.473846h55.453539z" fill="#000000" p-id="8094"></path><path d="M721.55241 351.862154a25.468718 25.468718 0 1 1-50.924307 0 25.468718 25.468718 0 0 1 50.924307 0" fill="#3B8ED8" p-id="8095"></path><path d="M696.096821 319.133538a32.728615 32.728615 0 1 0-0.013129 65.444103 32.728615 32.728615 0 0 0 0-65.444103z m0 14.546052a18.182564 18.182564 0 1 1 0 36.365128 18.182564 18.182564 0 0 1 0-36.365128z" fill="#000000" p-id="8096"></path><path d="M785.736205 340.256821a13.850256 13.850256 0 1 1-27.700513 0 13.850256 13.850256 0 0 1 27.700513 0" fill="#FCF33F" p-id="8097"></path><path d="M771.885949 322.770051a17.486769 17.486769 0 1 0 0 34.973539 17.486769 17.486769 0 0 0 0-34.973539z m0 7.273026a10.213744 10.213744 0 1 1 0 20.440615 10.213744 10.213744 0 0 1 0-20.440615z" fill="#000000" p-id="8098"></path><path d="M774.695385 396.563692a13.850256 13.850256 0 1 1-27.700513 0 13.850256 13.850256 0 0 1 27.700513 0" fill="#FCF33F" p-id="8099"></path><path d="M760.845128 379.063795a17.499897 17.499897 0 1 0 0 34.986667 17.499897 17.499897 0 0 0 0-34.986667z m0 7.273026a10.213744 10.213744 0 1 1 0 20.440615 10.213744 10.213744 0 0 1 0-20.440615z" fill="#000000" p-id="8100"></path><path d="M683.034256 425.655795a13.863385 13.863385 0 1 1-27.726769-0.013128 13.863385 13.863385 0 0 1 27.726769 0" fill="#ED6775" p-id="8101"></path><path d="M669.170872 408.155897a17.499897 17.499897 0 1 0 0 34.999795 17.499897 17.499897 0 0 0 0-34.999795z m0 7.273026a10.226872 10.226872 0 1 1 0 20.453744 10.226872 10.226872 0 0 1 0-20.453744z" fill="#000000" p-id="8102"></path><path d="M231.345231 366.539487a7.273026 7.273026 0 0 1 13.062564 6.406564l-1.050257 2.27118-1.391589 3.255795c-0.485744 1.181538-1.010872 2.454974-1.536 3.807179-3.085128 7.850667-6.170256 16.961641-9.058462 27.241026-12.681846 45.161026-17.355487 96.295385-9.321025 150.987487a7.273026 7.273026 0 0 1-14.401641 2.113641c-8.349538-56.845128-3.478974-110.027487 9.714871-157.03959 3.019487-10.765128 6.275282-20.33559 9.517949-28.619487 0.866462-2.179282 1.68041-4.161641 2.441846-5.947077l1.627898-3.675897 0.393846-0.800821z" fill="#FFFFFF" p-id="8103"></path><path d="M921.586872 220.593231a15.753846 15.753846 0 1 1-31.507693 0 15.753846 15.753846 0 0 1 31.507693 0" fill="#378BCB" p-id="8104"></path><path d="M579.741538 1002.469744a15.753846 15.753846 0 1 1-31.507692 0 15.753846 15.753846 0 0 1 31.507692 0M195.636513 742.898872l5.828923 10.660102c1.890462 3.465846 4.765538 6.327795 8.244513 8.231385l10.633846 5.815795-10.633846 5.828923a20.716308 20.716308 0 0 0-8.244513 8.244513l-5.828923 10.646974-5.828923-10.646974a20.703179 20.703179 0 0 0-8.231385-8.244513l-10.646974-5.828923 10.633846-5.815795a20.742564 20.742564 0 0 0 8.244513-8.231385l5.828923-10.660102z" fill="#E84756" p-id="8105"></path><path d="M579.741538 11.946667l5.828924 10.633846c1.890462 3.478974 4.765538 6.340923 8.244512 8.257641l10.633847 5.815795-10.633847 5.828923a20.716308 20.716308 0 0 0-8.244512 8.231384l-5.828924 10.646975-5.828923-10.633846a20.703179 20.703179 0 0 0-8.244512-8.244513l-10.633847-5.828923 10.633847-5.815795a20.742564 20.742564 0 0 0 8.244512-8.244513L579.741538 11.946667z" fill="#EED72E" p-id="8106"></path><path d="M170.010256 107.099897l5.828923 10.646975c1.90359 3.478974 4.765538 6.340923 8.244513 8.244513l10.633846 5.815794-10.633846 5.828924a20.716308 20.716308 0 0 0-8.244513 8.244512l-5.828923 10.646975-5.815794-10.646975a20.768821 20.768821 0 0 0-8.244513-8.244512l-10.646975-5.828924 10.646975-5.815794c3.478974-1.90359 6.340923-4.765538 8.244513-8.244513l5.815794-10.646975z" fill="#FCFCFC" p-id="8107"></path><path d="M87.591385 473.048615a27.109744 27.109744 0 1 0 0 54.219488 27.109744 27.109744 0 0 0 0-54.219488z m0 14.546052a12.563692 12.563692 0 1 1-0.013129 25.127384 12.563692 12.563692 0 0 1 0-25.127384z" fill="#3B84C5" p-id="8108"></path></svg>