<?xml version="1.0" standalone="no"?><!DOCTYPE svg PUBLIC "-//W3C//DTD SVG 1.1//EN" "http://www.w3.org/Graphics/SVG/1.1/DTD/svg11.dtd"><svg t="1609769690834" class="icon" viewBox="0 0 1024 1024" version="1.1" xmlns="http://www.w3.org/2000/svg" p-id="8248" xmlns:xlink="http://www.w3.org/1999/xlink" width="128" height="128"><defs><style type="text/css"></style></defs><path d="M935.253333 650.266256H449.050256a22.974359 22.974359 0 0 1-22.974359-22.974359V303.524103c0-12.681846 10.279385-22.974359 22.974359-22.974359H935.253333c12.681846 0 22.974359 10.292513 22.974359 22.974359v323.767794a22.974359 22.974359 0 0 1-22.974359 22.974359" fill="#E8454D" p-id="8249"></path><path d="M935.253333 280.549744h-12.274871c0.026256 0.288821 0.105026 0.564513 0.105025 0.853333v323.767795a22.974359 22.974359 0 0 1-22.987487 22.974359h-473.928205a22.921846 22.921846 0 0 0 22.882461 22.121025H935.253333a22.974359 22.974359 0 0 0 22.974359-22.974359V303.524103a22.974359 22.974359 0 0 0-22.974359-22.974359" fill="#C22A38" p-id="8250"></path><path d="M913.421128 258.730667H427.231179a30.260513 30.260513 0 0 0-30.260512 30.247384v323.767795a30.247385 30.247385 0 0 0 30.260512 30.247385h486.189949a30.247385 30.247385 0 0 0 30.260513-30.247385V288.978051a30.260513 30.260513 0 0 0-30.260513-30.247384z m-486.189949 14.546051h486.189949c8.677744 0 15.714462 7.036718 15.714462 15.701333v323.767795c0 8.664615-7.036718 15.701333-15.714462 15.701333H427.231179c-8.664615 0-15.714462-7.02359-15.714461-15.701333V288.978051c0-8.664615 7.036718-15.701333 15.714461-15.701333z" fill="#000000" p-id="8251"></path><path d="M872.172308 290.855385c3.72841 0 6.80041 2.809436 7.220513 6.43282l0.052512 0.840205v46.657641a7.273026 7.273026 0 0 1-14.506666 0.853334l-0.039385-0.853334V298.141538c0-4.017231 3.255795-7.273026 7.273026-7.273025zM872.172308 358.137436c3.72841 0 6.80041 2.796308 7.220513 6.419692l0.052512 0.853334v158.194871a7.273026 7.273026 0 0 1-14.506666 0.840205l-0.039385-0.853333v-158.194872c0-4.004103 3.255795-7.259897 7.273026-7.259897z" fill="#FFFFFF" p-id="8252"></path><path d="M838.839795 310.547692H501.825641a30.247385 30.247385 0 0 0-30.260513 30.260513v220.120616a30.247385 30.247385 0 0 0 30.260513 30.247384h337.014154a30.247385 30.247385 0 0 0 30.260513-30.247384V340.808205a30.260513 30.260513 0 0 0-30.260513-30.260513z m-337.014154 14.546052h337.014154c8.664615 0 15.714462 7.036718 15.714461 15.714461v220.120616c0 8.664615-7.036718 15.701333-15.714461 15.701333H501.825641c-8.677744 0-15.714462-7.036718-15.714462-15.701333V340.808205c0-8.677744 7.036718-15.714462 15.714462-15.714461z" fill="#000000" p-id="8253"></path><path d="M623.261538 422.373744c3.21641 0 5.907692 1.286564 6.459077 2.980102l0.105026 0.65641v34.553436c0 2.008615-2.940718 3.636513-6.564103 3.636513-3.229538 0-5.907692-1.286564-6.459076-2.980102l-0.105026-0.656411V426.010256c0-2.008615 2.940718-3.636513 6.564102-3.636512zM703.356718 510.555897c2.008615 0 3.636513 2.940718 3.636513 6.564103 0 3.229538-1.286564 5.907692-2.980103 6.472205l-0.65641 0.105026h-66.048c-2.008615 0-3.636513-2.940718-3.636513-6.564103 0-3.229538 1.286564-5.907692 2.980103-6.459077l0.65641-0.105025h66.048zM723.272205 422.373744c3.21641 0 5.907692 1.286564 6.445949 2.980102l0.118154 0.65641v34.553436c0 2.008615-2.940718 3.636513-6.564103 3.636513-3.229538 0-5.907692-1.286564-6.459077-2.980102l-0.105025-0.656411V426.010256c0-2.008615 2.92759-3.636513 6.564102-3.636512z" fill="#000000" p-id="8254"></path><path d="M490.929231 150.226051h-194.56V120.845128c0-4.516103 3.662769-8.192 8.192-8.192H482.724103c4.529231 0 8.192 3.675897 8.192 8.192v29.380923z" fill="#E8444E" p-id="8255"></path><path d="M482.724103 110.22441H304.574359c-8.533333 0-15.465026 6.931692-15.465026 15.465026v36.667077h209.106052V125.689436c0-8.533333-6.931692-15.465026-15.465026-15.465026z m0 14.546052l0.301948 0.052512a0.918974 0.918974 0 0 1 0.630154 0.866462v22.121026H303.642256V125.689436a0.918974 0.918974 0 0 1 0.918975-0.918974H482.724103z" fill="#000000" p-id="8256"></path><path d="M547.853128 722.392615H268.537436a55.808 55.808 0 0 1-55.808-55.808V225.450667a55.808 55.808 0 0 1 55.808-55.821129h279.315692a55.821128 55.821128 0 0 1 55.808 55.821129v441.133948a55.821128 55.821128 0 0 1-55.794872 55.808" fill="#3A81C3" p-id="8257"></path><path d="M198.183385 244.184615c3.72841 0 6.80041 2.809436 7.220512 6.432821l0.052513 0.840205v400.580923a48.548103 48.548103 0 0 0 46.828308 48.508718l1.706667 0.026256h279.315692a48.548103 48.548103 0 0 0 48.508718-46.828307l0.026256-1.706667v-76.012308a7.273026 7.273026 0 0 1 14.493539-0.853333l0.052513 0.853333v76.012308a63.094154 63.094154 0 0 1-61.177436 63.054769l-1.90359 0.026257H253.991385a63.094154 63.094154 0 0 1-63.05477-61.190564l-0.026256-1.890462V251.457641c0-4.017231 3.255795-7.273026 7.273026-7.273026zM533.307077 147.810462a63.094154 63.094154 0 0 1 63.054769 61.190564l0.026257 1.903589V536.024615a7.273026 7.273026 0 0 1-14.493539 0.840206l-0.052513-0.840206V210.904615a48.548103 48.548103 0 0 0-46.828307-48.521846l-1.706667-0.026256H253.991385a48.548103 48.548103 0 0 0-48.508718 46.841436l-0.026257 1.706666v16.909129a7.273026 7.273026 0 0 1-14.506666 0.853333l-0.039385-0.853333v-16.909129a63.094154 63.094154 0 0 1 61.177436-63.067897l1.90359-0.026256h279.315692z" fill="#000000" p-id="8258"></path><path d="M425.773949 316.914872l-84.256821 109.095384 73.347282 37.586052-43.034256 88.484102 103.030154-111.524102-75.749744-35.144205z" fill="#EED72E" p-id="8259"></path><path d="M229.389128 294.189949c3.741538 0 6.813538 2.796308 7.220513 6.419692l0.052513 0.853333v55.453539a7.273026 7.273026 0 0 1-14.493539 0.853333l-0.052512-0.853333v-55.453539c0-4.017231 3.255795-7.273026 7.273025-7.273025zM229.389128 385.102769c3.741538 0 6.813538 2.809436 7.220513 6.432821l0.052513 0.840205v124.547282a7.273026 7.273026 0 0 1-14.493539 0.853333l-0.052512-0.853333v-124.547282c0-4.017231 3.255795-7.273026 7.273025-7.273026z" fill="#FFFFFF" p-id="8260"></path><path d="M917.832205 219.713641a15.753846 15.753846 0 1 1-31.507692 0 15.753846 15.753846 0 0 1 31.507692 0" fill="#378BCB" p-id="8261"></path><path d="M576 1001.590154a15.753846 15.753846 0 1 1-31.507692 0 15.753846 15.753846 0 0 1 31.507692 0M191.894974 742.019282l5.815795 10.646974c1.90359 3.478974 4.765538 6.340923 8.244513 8.244513l10.633846 5.815795-10.633846 5.828923a20.742564 20.742564 0 0 0-8.244513 8.244513l-5.815795 10.633846-5.828923-10.633846a20.795077 20.795077 0 0 0-8.244513-8.244513l-10.633846-5.828923 10.633846-5.815795a20.742564 20.742564 0 0 0 8.244513-8.244513l5.828923-10.633846z" fill="#E84756" p-id="8262"></path><path d="M576 11.067077l5.815795 10.633846c1.90359 3.478974 4.765538 6.340923 8.244513 8.244513l10.633846 5.828923-10.633846 5.815795a20.742564 20.742564 0 0 0-8.244513 8.244513l-5.815795 10.646974-5.828923-10.646974a20.795077 20.795077 0 0 0-8.244513-8.244513l-10.633846-5.815795 10.633846-5.828923a20.742564 20.742564 0 0 0 8.244513-8.231385l5.828923-10.646974z" fill="#3A81C3" p-id="8263"></path><path d="M166.268718 106.207179l5.815795 10.660103c1.916718 3.478974 4.765538 6.340923 8.257641 8.244513l10.633846 5.815795-10.633846 5.828923a20.781949 20.781949 0 0 0-8.257641 8.244513l-5.815795 10.633846-5.828923-10.633846a20.742564 20.742564 0 0 0-8.244513-8.244513l-10.633846-5.828923 10.633846-5.815795a20.742564 20.742564 0 0 0 8.244513-8.244513l5.828923-10.646974z" fill="#E8454D" p-id="8264"></path><path d="M83.836718 472.182154a27.096615 27.096615 0 1 0 0 54.193231 27.096615 27.096615 0 0 0 0-54.193231z m0 14.546051a12.550564 12.550564 0 1 1 0 25.088 12.550564 12.550564 0 0 1 0-25.088z" fill="#3B84C5" p-id="8265"></path></svg>