<?xml version="1.0" standalone="no"?><!DOCTYPE svg PUBLIC "-//W3C//DTD SVG 1.1//EN" "http://www.w3.org/Graphics/SVG/1.1/DTD/svg11.dtd"><svg t="1609769589208" class="icon" viewBox="0 0 1079 1024" version="1.1" xmlns="http://www.w3.org/2000/svg" p-id="5532" xmlns:xlink="http://www.w3.org/1999/xlink" width="134.875" height="128"><defs><style type="text/css"></style></defs><path d="M809.956324 385.522162c0 141.837838-114.992432 256.816432-256.83027 256.816433-141.837838 0-256.816432-114.992432-256.816432-256.830271 0-141.837838 114.992432-256.83027 256.83027-256.83027 141.837838 0 256.83027 114.992432 256.83027 256.83027" fill="#E9B778" p-id="5533"></path><path d="M689.843892 385.522162c0 75.499243-61.204757 136.717838-136.717838 136.717838-75.499243 0-136.717838-61.218595-136.717838-136.717838 0-75.513081 61.218595-136.731676 136.717838-136.731676 75.513081 0 136.717838 61.218595 136.717838 136.717838" fill="#F3F4BA" p-id="5534"></path><path d="M793.447784 944.294054h-37.957189V598.901622H384.968649v366.467459h-47.519135c-11.692973 0-21.171892 7.48627-21.171892 16.729946s9.478919 16.729946 21.171892 16.729946H793.461622c10.793514 0 19.539027-6.918919 19.539027-15.456865v-23.635027c0-8.537946-8.745514-15.443027-19.539027-15.443027" fill="#3A84C5" p-id="5535"></path><path d="M432.916757 503.697297a80.162595 80.162595 0 0 0-80.162595 80.162595v167.880649c0 27.288216 21.033514 51.061622 48.294054 51.891891a49.816216 49.816216 0 0 0 51.338379-49.802378v-82.584216c0-27.274378 21.019676-51.061622 48.294054-51.891892a49.816216 49.816216 0 0 1 51.338378 49.802378v50.162162c1.646703 26.015135 25.337081 46.633514 51.781189 46.633514 26.43027 0 48.017297-20.618378 49.650162-46.633514l-2.380108-80.619243 17.850811-0.041513 4.953946 36.227459a51.39373 51.39373 0 0 0 50.923243 44.433297h15.014054c8.51027 0 15.401514-6.891243 15.401514-15.387675V503.697297H432.916757z" fill="#E7444F" p-id="5536"></path><path d="M463.844324 458.281514a7.666162 7.666162 0 0 1 0.89946 15.276972l-0.89946 0.055352h-46.259892a72.496432 72.496432 0 0 0-72.496432 72.496432 7.666162 7.666162 0 1 1-15.332324 0 87.828757 87.828757 0 0 1 85.559351-87.801081l2.269405-0.027675h46.259892zM739.881514 458.281514c3.929946 0 7.168 2.961297 7.61081 6.78054l0.055352 0.885622v78.958702a7.666162 7.666162 0 0 1-15.290811 0.89946l-0.041514-0.89946v-71.306378H502.175135a7.666162 7.666162 0 0 1-7.610811-6.766703l-0.055351-0.885621c0-3.929946 2.961297-7.181838 6.780541-7.610811l0.885621-0.055351h237.706379zM485.113081 573.938162a57.482378 57.482378 0 0 1 59.19827 55.586595l0.027676 1.868108v49.677838c1.356108 21.628541 21.365622 39.465514 44.128865 39.465513 21.656216 0 39.631568-16.439351 41.845622-37.071567l0.138378-1.674379-2.36627-80.619243a7.666162 7.666162 0 0 1 6.78054-7.846054l0.857946-0.041514 17.850811-0.041513c3.542486-0.013838 6.586811 2.393946 7.444757 5.75654l0.166054 0.871784 4.953946 36.22746a43.727568 43.727568 0 0 0 41.513513 37.763459l1.798919 0.027676h15.027892a7.735351 7.735351 0 0 0 7.68-6.877406l0.055351-0.844108v-78.14227a7.666162 7.666162 0 0 1 15.276973-0.885622l0.055352 0.885622v78.14227c0 12.288-9.603459 22.320432-21.711568 23.026163l-1.356108 0.027675H709.465946a59.059892 59.059892 0 0 1-58.215784-49.152l-0.276757-1.895784-4.068324-29.599135h-3.251892l2.131027 73.478919a57.454703 57.454703 0 0 1-55.42054 53.773838l-1.881946 0.041514c-30.055784 0-56.458378-22.970811-59.308973-52.445406l-0.138379-1.868108v-50.162162a42.150054 42.150054 0 0 0-43.45081-42.136216c-22.085189 0.664216-39.963676 19.622054-40.821622 42.509837l-0.027676 1.715892v82.598054a57.482378 57.482378 0 0 1-59.253621 57.454703c-30.484757-0.927135-54.728649-26.734703-55.68346-57.648432l-0.027675-1.895784v-102.953514a7.666162 7.666162 0 0 1 15.276972-0.899459l0.055352 0.899459v102.953514c0 23.648865 18.224432 43.533838 40.849297 44.211892a42.150054 42.150054 0 0 0 43.423135-40.475676l0.027676-1.66054V633.496216c0-31.744 24.603676-58.603243 55.724973-59.544216zM740.15827 691.532108c3.929946 0 7.168 2.961297 7.610811 6.780541l0.055351 0.885621v224.435892h30.291027c14.488216 0 26.388757 11.180973 27.163676 25.323243l0.041514 1.466811V979.718919c0 14.336-11.416216 25.987459-25.724541 26.734703l-1.480649 0.041513H322.103351c-15.885838 0-28.838054-12.661622-28.838054-28.367567 0-15.207784 12.135784-27.551135 27.315892-28.339892l1.522162-0.027676 39.852973-0.013838V875.52c0-3.929946 2.961297-7.168 6.780541-7.610811l0.885621-0.055351c3.929946 0 7.168 2.961297 7.610811 6.78054l0.055352 0.885622v81.892324a7.666162 7.666162 0 0 1-6.780541 7.610811l-0.885622 0.055351h-47.519135c-7.500108 0-13.50573 5.867243-13.505729 13.035244 0 6.780541 5.396757 12.412541 12.343351 12.993729l1.162378 0.041514h456.012108c6.227027 0 11.291676-4.608 11.831352-10.406054l0.041513-1.037838v-29.280865c0-5.936432-4.704865-10.876541-10.793513-11.402378l-1.079352-0.055352h-37.957189a7.666162 7.666162 0 0 1-7.610811-6.78054l-0.055351-0.885622V699.19827c0-4.234378 3.431784-7.666162 7.666162-7.666162z" fill="#000000" p-id="5537"></path><path d="M369.608649 754.826378c3.943784 0 7.195676 2.961297 7.624648 6.780541l0.055352 0.885622v79.80281a7.666162 7.666162 0 0 1-15.276973 0.89946l-0.055352-0.89946v-79.80281c0-4.234378 3.431784-7.666162 7.666162-7.666163z" fill="#000000" p-id="5538"></path><path d="M549.306811 417.459892v48.487784" fill="#E1CA4C" p-id="5539"></path><path d="M604.409081 393.105297a51.269189 51.269189 0 0 1-102.538378 0c0-22.085189 31.190486-68.912432 44.917621-88.423783a7.749189 7.749189 0 0 1 12.689298 0c13.727135 19.511351 44.931459 66.338595 44.931459 88.423783" fill="#E1CA4C" p-id="5540"></path><path d="M596.742919 393.105297a51.269189 51.269189 0 0 1-102.538378 0c0-22.085189 31.190486-68.912432 44.917621-88.423783a7.749189 7.749189 0 0 1 12.689297 0c13.727135 19.511351 44.931459 66.338595 44.93146 88.423783" fill="#F4E148" p-id="5541"></path><path d="M849.062054 907.651459a16.605405 16.605405 0 1 1 0-33.21081 16.605405 16.605405 0 0 1 0 33.21081" fill="#378BCB" p-id="5542"></path><path d="M24.908108 547.328a16.605405 16.605405 0 1 1 0.013838-33.210811 16.605405 16.605405 0 0 1 0 33.210811M298.509838 142.460541l-11.208649 6.144a21.919135 21.919135 0 0 0-8.704 8.676324l-6.130162 11.236324-6.144-11.236324a21.919135 21.919135 0 0 0-8.676324-8.676324l-11.222487-6.144 11.208649-6.144c3.667027-1.992649 6.683676-5.023135 8.690162-8.690163l6.144-11.208648 6.130162 11.208648c2.020324 3.667027 5.036973 6.697514 8.690162 8.690163l11.222487 6.144z" fill="#E84756" p-id="5543"></path><path d="M1068.972973 547.328l-11.208649 6.130162a21.988324 21.988324 0 0 0-8.690162 8.690162l-6.130162 11.222487-6.144-11.208649a21.988324 21.988324 0 0 0-8.690162-8.704l-11.208649-6.130162 11.208649-6.144c3.667027-1.992649 6.683676-5.023135 8.690162-8.690162l6.144-11.208649 6.130162 11.208649c2.006486 3.667027 5.036973 6.697514 8.690162 8.690162l11.208649 6.144z" fill="#FCFCFC" p-id="5544"></path><path d="M968.690162 115.449081l-11.222486 6.144a21.82227 21.82227 0 0 0-8.690162 8.690162l-6.130163 11.208649-6.144-11.208649a21.891459 21.891459 0 0 0-8.690162-8.690162l-11.222486-6.144 11.208648-6.144c3.667027-1.992649 6.697514-5.009297 8.704-8.676324l6.144-11.222487 6.130163 11.208649c1.992649 3.680865 5.023135 6.697514 8.690162 8.690162l11.208648 6.144zM895.861622 281.807568l-11.236325 6.130162a21.891459 21.891459 0 0 0-8.676324 8.704l-6.130162 11.208648-6.144-11.208648a21.960649 21.960649 0 0 0-8.704-8.704l-11.208649-6.130162 11.208649-6.144c3.667027-1.992649 6.697514-5.009297 8.704-8.676325l6.144-11.222486 6.130162 11.208648c1.992649 3.680865 5.023135 6.697514 8.676324 8.690163l11.236325 6.144z" fill="#F4E148" p-id="5545"></path><path d="M554.371459 0a28.575135 28.575135 0 1 0 0.013838 57.15027 28.575135 28.575135 0 0 0 0-57.15027z m0 15.332324a13.242811 13.242811 0 1 1 0 26.471784 13.242811 13.242811 0 0 1 0-26.471784z" fill="#3B84C5" p-id="5546"></path></svg>