<?xml version="1.0" standalone="no"?><!DOCTYPE svg PUBLIC "-//W3C//DTD SVG 1.1//EN" "http://www.w3.org/Graphics/SVG/1.1/DTD/svg11.dtd"><svg t="1609769597910" class="icon" viewBox="0 0 1192 1024" version="1.1" xmlns="http://www.w3.org/2000/svg" p-id="5837" xmlns:xlink="http://www.w3.org/1999/xlink" width="149" height="128"><defs><style type="text/css"></style></defs><path d="M727.085851 713.055522c-102.522269 0-185.634388-83.112119-185.634388-185.634388 0-102.506985 83.112119-185.619104 185.634388-185.619104 102.506985 0 185.634388 83.112119 185.634388 185.619104 0 102.522269-83.127403 185.634388-185.634388 185.634388m375.257791-247.257791h-69.142926a310.470687 310.470687 0 0 0-46.110567-111.23391l48.907463-48.907463c9.170149-9.170149 9.170149-24.041075 0-33.211224l-53.951045-53.951044c-9.154866-9.170149-24.025791-9.170149-33.19594 0l-48.907463 48.907462a310.256716 310.256716 0 0 0-111.23391-46.095283V152.163343c0-12.975761-10.499821-23.475582-23.475582-23.475582h-76.295642c-12.975761 0-23.475582 10.499821-23.475582 23.475582v69.142926a310.256716 310.256716 0 0 0-111.233911 46.110567l-48.907462-48.907463c-9.170149-9.170149-24.041075-9.170149-33.211224 0l-53.951045 53.935761c-9.170149 9.170149-9.170149 24.041075 0 33.211224l48.907463 48.907463a310.608239 310.608239 0 0 0-46.095284 111.23391H351.82806c-12.975761 0-23.490866 10.515104-23.490866 23.475582v76.295642c0 12.975761 10.515104 23.490866 23.490866 23.490866h69.142925a310.562388 310.562388 0 0 0 46.095284 111.218627l-48.907463 48.907462c-9.170149 9.170149-9.170149 24.041075 0 33.211224l53.951045 53.951045c9.170149 9.170149 24.041075 9.170149 33.211224 0l48.907462-48.907463a310.241433 310.241433 0 0 0 111.233911 46.095284v69.158209c0 12.960478 10.499821 23.475582 23.475582 23.475582h76.295642c12.975761 0 23.475582-10.515104 23.475582-23.475582v-69.158209a310.302567 310.302567 0 0 0 111.23391-46.095284l48.907463 48.907463c9.170149 9.170149 24.041075 9.170149 33.211224 0l53.951045-53.951045c9.170149-9.170149 9.170149-24.041075 0-33.19594l-48.907463-48.907463a310.531821 310.531821 0 0 0 46.095283-111.23391h69.142926c12.975761 0 23.475582-10.515104 23.475582-23.490866v-76.295642c0-12.960478-10.499821-23.475582-23.475582-23.475582" fill="#E83D46" p-id="5838"></path><path d="M748.284179 111.753552a31.942687 31.942687 0 0 1 31.927403 30.307344l0.030567 1.635343v62.280597l3.836179 0.871164a318.570985 318.570985 0 0 1 89.347821 36.069254l5.165851 3.133134 3.270687 2.063284 44.062567-44.077851c11.630806-11.615522 29.955821-12.410269 42.488358-2.399522l1.375522 1.161552 1.329672 1.23797 53.951045 53.951045a31.942687 31.942687 0 0 1 1.23797 43.86388l-1.23797 1.329672-44.077851 44.062567 2.063284 3.270687a318.968358 318.968358 0 0 1 37.750447 88.614209l1.451941 5.899462 0.871164 3.820896h62.280597c16.521552 0 30.108657 12.563104 31.774567 28.641433l0.122269 1.681194 0.04585 1.635343v76.295642a31.942687 31.942687 0 0 1-30.292059 31.912119l-1.650627 0.045851h-62.280597l-0.871164 3.820895a318.784955 318.784955 0 0 1-36.069254 89.347821l-3.133134 5.165851-2.063284 3.270687 44.077851 44.07785c11.615522 11.615522 12.410269 29.955821 2.399522 42.488359l-1.161552 1.375522-1.23797 1.314388-53.951045 53.951045a31.942687 31.942687 0 0 1-43.863881 1.253254l-1.329671-1.253254-44.062567-44.077851-3.270687 2.078567a318.968358 318.968358 0 0 1-88.614209 37.750448l-5.899463 1.436657-3.820895 0.871164v62.280597a31.942687 31.942687 0 0 1-28.641433 31.789851l-1.681194 0.122268-1.635343 0.045851h-76.295642a31.942687 31.942687 0 0 1-31.91212-30.307343l-0.030567-1.650627v-62.280597l-3.836179-0.871164a318.739104 318.739104 0 0 1-89.347821-36.069254l-5.16585-3.133134-3.270687-2.063284-44.077851 44.077851a31.942687 31.942687 0 0 1-42.488358 2.399522l-1.375522-1.146268-1.314388-1.253254-53.951045-53.951045a31.942687 31.942687 0 0 1-1.23797-43.863881l1.23797-1.314388 44.062567-44.07785-2.063284-3.270687a318.983642 318.983642 0 0 1-37.750447-88.614209l-1.436657-5.899463-0.886448-3.820895h-62.265313c-16.521552 0-30.108657-12.547821-31.789851-28.626149l-0.122269-1.681194-0.04585-1.650627V480.821493a31.942687 31.942687 0 0 1 30.307343-31.896836l1.650627-0.045851h62.265313l0.886448-3.820896a318.907224 318.907224 0 0 1 36.069254-89.34782l3.11785-5.181135 2.063284-3.28597-44.062567-44.047284a31.942687 31.942687 0 0 1-2.399523-42.503641l1.161553-1.375523 1.23797-1.314388 53.951045-53.951045a31.942687 31.942687 0 0 1 43.86388-1.23797l1.314388 1.253254 44.062567 44.062567 3.285971-2.063283a318.769672 318.769672 0 0 1 88.614209-37.750448l5.899462-1.45194 3.820896-0.871165V143.696239c0-16.506269 12.547821-30.108657 28.641433-31.774567l1.681194-0.122269 1.635343-0.045851h76.295642z m0 16.934209H672.019104a15.008478 15.008478 0 0 0-14.97791 13.785791l-0.030567 1.222687v76.081671l-6.816478 1.360239a301.713194 301.713194 0 0 0-103.699104 41.922866l-4.493373 2.934448-5.777194 3.851462-53.813493-53.828776a15.023761 15.023761 0 0 0-20.174328-0.978149l-1.069851 0.978149-53.951045 53.951045a15.023761 15.023761 0 0 0-0.962865 20.159045l0.978149 1.069851 53.798209 53.828776-3.820896 5.76191a302.248119 302.248119 0 0 0-43.756895 102.919642l-1.100418 5.288119-1.375523 6.801194h-76.066388a15.023761 15.023761 0 0 0-14.97791 13.785791l-0.030567 1.222687v76.295642c0 7.886328 6.067582 14.336 13.770507 14.97791l1.222687 0.045851h76.081671l1.375523 6.801194a301.973015 301.973015 0 0 0 41.907582 103.699104l2.934448 4.493374 3.851462 5.76191-53.813492 53.84406a15.008478 15.008478 0 0 0-0.978149 20.143761l0.978149 1.069851 53.951045 53.951044a15.023761 15.023761 0 0 0 20.159044 0.97815l1.069851-0.962866 53.813493-53.828776 5.777194 3.851463a302.034149 302.034149 0 0 0 102.919641 43.741612l5.272836 1.115701 6.816478 1.360239v76.066388c0 7.886328 6.052299 14.351284 13.770507 14.97791l1.222687 0.045851h76.310925a15.008478 15.008478 0 0 0 14.977911-13.785791l0.030567-1.222687V818.130149l6.816477-1.375522a301.942448 301.942448 0 0 0 103.699105-41.907582l4.493373-2.934448 5.777194-3.851463 53.798209 53.813493a15.023761 15.023761 0 0 0 20.174328 0.978149l1.069851-0.962866 53.951045-53.951044a15.008478 15.008478 0 0 0 0.978149-20.174329l-0.978149-1.06985-53.813493-53.813493 3.83618-5.777194a302.095284 302.095284 0 0 0 43.756895-102.919642l1.100418-5.272836 1.375522-6.801194h76.066388a15.008478 15.008478 0 0 0 14.962627-13.785791l0.045851-1.222686v-76.310926a15.008478 15.008478 0 0 0-13.770507-14.962626l-1.222687-0.045851H1009.327761l-1.375522-6.801194a301.942448 301.942448 0 0 0-41.922866-103.714388l-2.934448-4.493373-3.836179-5.761911 53.813493-53.828776a15.023761 15.023761 0 0 0 0.978149-20.174328l-0.978149-1.069851-53.951045-53.951045a15.008478 15.008478 0 0 0-20.174328-0.962866l-1.069851 0.97815-53.798209 53.828776-5.777194-3.851463a301.896597 301.896597 0 0 0-102.919642-43.756895l-5.272836-1.100418-6.816477-1.375523V143.711522a15.008478 15.008478 0 0 0-13.785791-14.962626l-1.222687-0.045851z m85.649194 240.517732l6.327403 5.716059a193.597134 193.597134 0 0 1 63.977075 144.032478c0 107.199045-86.887164 194.101493-194.101493 194.101492-46.339821 0-90.173134-16.322866-124.866865-45.514507l-3.02615-2.598209-6.419104-5.624358 258.109134-290.112955z m1.161552 24.148059L599.957015 657.683104l2.414806 1.910448a176.280836 176.280836 0 0 0 103.821373 36.497194l3.958448 0.045851c97.845493 0 177.152-79.321791 177.152-177.167284 0-47.149851-18.493134-91.304119-50.726209-124.102686l-1.482508-1.482508zM558.125851 610.059463l20.969074 28.167641-13.082746 10.729075a194.040358 194.040358 0 0 1-19.150328-25.019224l-2.766329-4.432239 14.030329-9.445253z m152.025791-285.191642c17.79009 0 35.259224 2.399522 52.071164 7.076298l4.585075 1.329672 12.92991 3.943164-245.637731 264.711642-4.890747-12.608955a193.673552 193.673552 0 0 1-13.14388-70.350329c0-107.183761 86.887164-194.101493 194.086209-194.101492z m0 16.949492c-97.845493 0-177.152 79.321791-177.152 177.152 0 16.322866 2.200836 32.324776 6.480239 47.70006l1.008716 3.45409 208.009552-224.149015-0.382089-0.091702a177.549373 177.549373 0 0 0-33.134806-4.004298l-4.829612-0.061135z" fill="#000000" p-id="5839"></path><path d="M583.145075 793.493015c-102.522269 0-185.634388-83.112119-185.634388-185.634388 0-102.506985 83.112119-185.619104 185.634388-185.619105 102.506985 0 185.619104 83.112119 185.619104 185.619105 0 102.522269-83.112119 185.634388-185.619104 185.634388M958.402866 546.235224h-69.142926a310.470687 310.470687 0 0 0-46.110567-111.218627l48.907463-48.922746c9.170149-9.170149 9.170149-24.041075 0-33.211224l-53.951045-53.951045c-9.170149-9.170149-24.025791-9.170149-33.211224 0l-48.907463 48.922746a310.256716 310.256716 0 0 0-111.218626-46.110567v-69.142925c0-12.960478-10.515104-23.475582-23.475582-23.475582h-76.310926c-12.960478 0-23.460299 10.515104-23.460298 23.475582v69.142925a310.256716 310.256716 0 0 0-111.233911 46.110567l-48.907462-48.907462c-9.170149-9.170149-24.041075-9.170149-33.211224 0l-53.951045 53.951044c-9.170149 9.170149-9.170149 24.025791 0 33.195941l48.907463 48.907462a310.608239 310.608239 0 0 0-46.110568 111.233911h-69.127641c-12.975761 0-23.490866 10.515104-23.490866 23.475582v76.310925c0 12.960478 10.515104 23.475582 23.490866 23.475582h69.127641a310.562388 310.562388 0 0 0 46.110568 111.218627l-48.907463 48.922747c-9.170149 9.170149-9.170149 24.025791 0 33.19594l53.951045 53.951045c9.170149 9.170149 24.025791 9.170149 33.19594 0l48.922746-48.907463a310.241433 310.241433 0 0 0 111.233911 46.110567v69.142925c0 12.960478 10.499821 23.475582 23.460298 23.475583h76.310926c12.960478 0 23.475582-10.515104 23.475582-23.475583v-69.142925a310.302567 310.302567 0 0 0 111.218626-46.110567l48.907463 48.907463c9.170149 9.170149 24.056358 9.170149 33.211224 0l53.951045-53.951045c9.170149-9.170149 9.170149-24.041075 0-33.19594l-48.907463-48.907463a310.531821 310.531821 0 0 0 46.110567-111.233911h69.142926c12.960478 0 23.475582-10.515104 23.475582-23.475582v-76.310925c0-12.960478-10.515104-23.475582-23.475582-23.475582" fill="#3988CA" p-id="5840"></path><path d="M604.343403 192.191045a31.942687 31.942687 0 0 1 31.912119 30.307343l0.045851 1.635343v62.280597l3.820896 0.871165a318.570985 318.570985 0 0 1 89.347821 36.069253l5.181134 3.133135 3.270686 2.063283 44.062568-44.077851c11.615522-11.615522 29.955821-12.410269 42.488358-2.399522l1.375522 1.161552 1.314388 1.253254 53.951045 53.951045a31.942687 31.942687 0 0 1 1.253254 43.86388l-1.253254 1.314388-44.062567 44.062568 2.063283 3.270686a318.968358 318.968358 0 0 1 37.750448 88.614209l1.451941 5.899463 0.85588 3.820895 62.295881 0.015284c16.506269 0 30.108657 12.532537 31.759283 28.626149l0.137553 1.681194 0.04585 1.635343v76.310926a31.942687 31.942687 0 0 1-30.307343 31.896836l-1.635343 0.04585h-62.295881l-0.85588 3.820896a318.784955 318.784955 0 0 1-36.069254 89.347821l-3.133135 5.165851-2.063283 3.28597 44.062567 44.062567c11.615522 11.615522 12.425552 29.955821 2.414806 42.488358l-1.161552 1.375523-1.253254 1.314388-53.951045 53.951044a31.942687 31.942687 0 0 1-43.86388 1.253254l-1.314388-1.253254-44.062568-44.07785-3.270686 2.078567a318.968358 318.968358 0 0 1-88.614209 37.750448l-5.899463 1.436656-3.836179 0.871164v62.295881a31.942687 31.942687 0 0 1-28.626149 31.774567l-1.681194 0.122269-1.650627 0.045851h-76.280358a31.942687 31.942687 0 0 1-31.91212-30.307344l-0.04585-1.635343v-62.295881l-3.820896-0.871164a318.739104 318.739104 0 0 1-89.347821-36.069253l-5.181134-3.117851-3.270687-2.078567-44.062567 44.07785a31.942687 31.942687 0 0 1-42.488358 2.399523l-1.375522-1.146269-1.314389-1.253254-53.951044-53.951044a31.942687 31.942687 0 0 1-1.253254-43.863881l1.253254-1.314388 44.062567-44.077851-2.063284-3.270686a318.983642 318.983642 0 0 1-37.750447-88.614209l-1.436657-5.884179-0.886448-3.83618h-62.265313c-16.521552 0-30.108657-12.547821-31.789851-28.626149l-0.122269-1.681194-0.045851-1.635343v-76.310926a31.942687 31.942687 0 0 1 30.307344-31.896835l1.650627-0.045851h62.265313l0.886448-3.820896a318.907224 318.907224 0 0 1 36.069254-89.34782l3.11785-5.165851 2.063284-3.28597-44.062567-44.062568a31.942687 31.942687 0 0 1-2.399523-42.488358l1.146269-1.375522 1.253254-1.329672 53.951044-53.951045a31.942687 31.942687 0 0 1 43.863881-1.222686l1.314388 1.222686 44.062567 44.077851 3.28597-2.063283a318.769672 318.769672 0 0 1 88.614209-37.750448l5.899463-1.45194 3.820896-0.871165v-62.280597c0-16.506269 12.532537-30.108657 28.626149-31.774567l1.681194-0.122268 1.650627-0.045851h76.280358z m0 16.934209h-76.280358a15.008478 15.008478 0 0 0-14.977911 13.785791l-0.04585 1.222686v76.081672l-6.801194 1.375522a301.713194 301.713194 0 0 0-103.699105 41.907582l-4.493373 2.934448-5.777194 3.851463-53.828776-53.828776a15.023761 15.023761 0 0 0-20.159045-0.978149l-1.069851 0.978149-53.951045 53.951045a15.023761 15.023761 0 0 0-0.962865 20.174328l0.962865 1.069851 53.813493 53.798209-3.836179 5.792477a302.248119 302.248119 0 0 0-43.741612 102.919642l-1.115702 5.272836-1.360238 6.801194h-76.066388a15.023761 15.023761 0 0 0-14.977911 13.785791l-0.045851 1.222686v76.310926c0 7.871045 6.067582 14.336 13.785791 14.962627l1.222687 0.04585h76.081672l1.375522 6.801195a301.973015 301.973015 0 0 0 41.907582 103.699104l2.934448 4.493373 3.836179 5.777194-53.798209 53.828776a15.008478 15.008478 0 0 0-0.978149 20.143761l0.962865 1.069851 53.951045 53.951045a15.023761 15.023761 0 0 0 20.174329 0.978149l1.06985-0.962865 53.813493-53.828777 5.777194 3.851463a302.034149 302.034149 0 0 0 102.919642 43.741612l5.272836 1.115702 6.801194 1.375522v76.066388c0 7.871045 6.067582 14.336 13.785791 14.962627l1.222686 0.045851h76.295642a15.008478 15.008478 0 0 0 14.97791-13.785791l0.045851-1.222687v-76.081672l6.801194-1.375522a301.942448 301.942448 0 0 0 103.714388-41.907582l4.493373-2.934448 5.761911-3.851463 53.813492 53.828777a15.023761 15.023761 0 0 0 20.174329 0.962865l1.06985-0.962865 53.951045-53.951045a15.008478 15.008478 0 0 0 0.97815-20.174329l-0.97815-1.06985-53.828776-53.798209 3.851463-5.792478a302.095284 302.095284 0 0 0 43.756895-102.919642l1.100418-5.272835 1.375523-6.801195H941.468657a15.008478 15.008478 0 0 0 14.947343-13.785791l0.061134-1.222686v-76.310926a15.008478 15.008478 0 0 0-13.785791-14.962626l-1.222686-0.045851h-76.081672l-1.360239-6.801194a301.942448 301.942448 0 0 0-41.922865-103.714388l-2.934448-4.47809-3.851463-5.777194 53.828776-53.828776a15.023761 15.023761 0 0 0 0.97815-20.174328l-0.97815-1.069851-53.951045-53.935761a15.008478 15.008478 0 0 0-20.174328-0.978149l-1.069851 0.978149-53.798209 53.828776-5.792477-3.851463a301.896597 301.896597 0 0 0-102.904358-43.756895l-5.28812-1.100418-6.801194-1.375523v-76.066388a15.008478 15.008478 0 0 0-13.785791-14.962627l-1.222686-0.04585z m85.649194 240.517731l6.327403 5.71606a193.597134 193.597134 0 0 1 63.977075 144.032477c0 107.199045-86.902448 194.101493-194.101493 194.101493-46.339821 0-90.173134-16.322866-124.866866-45.499224l-3.041432-2.613492-6.419105-5.624359L690.007881 449.642985zM691.123582 473.791045L456.000955 738.120597l2.43009 1.910448a176.280836 176.280836 0 0 0 103.821373 36.497194l3.943164 0.045851c97.845493 0 177.167284-79.321791 177.167284-177.167284 0-47.134567-18.508418-91.288836-50.726209-124.102687l-1.497791-1.482507zM414.185075 690.496955l20.969074 28.182926-13.082746 10.713791a194.040358 194.040358 0 0 1-19.150328-25.019224l-2.781612-4.432239 14.045612-9.445254z m152.010507-285.176358c17.805373 0 35.274507 2.399522 52.086448 7.061015l4.585074 1.329672 12.929911 3.943164-245.637731 264.711642-4.890747-12.608956a193.673552 193.673552 0 0 1-13.14388-70.350328c0-107.183761 86.887164-194.086209 194.070925-194.086209z m0 16.934209c-97.830209 0-177.136716 79.321791-177.136716 177.152 0 16.322866 2.200836 32.324776 6.480238 47.70006l1.008717 3.454089L604.557373 426.41194l-0.397373-0.091701a177.549373 177.549373 0 0 0-33.134806-4.004299l-4.829612-0.061134z" fill="#000000" p-id="5841"></path><path d="M348.205851 437.966328a8.467104 8.467104 0 1 1 12.761791 11.141732c-33.165373 37.979701-49.595224 82.577194-43.252538 134.388537a8.467104 8.467104 0 0 1-16.81194 2.063284c-6.969313-56.96191 11.157015-106.220896 47.302687-147.593553zM432.831045 373.591881a8.467104 8.467104 0 0 1 6.938746 15.436418l-2.445373 1.192119-1.925731 0.962866c-3.66806 1.864597-7.76406 4.126567-12.24215 6.78591-12.838209 7.59594-25.905672 16.81194-38.438209 27.632716a8.467104 8.467104 0 1 1-11.065313-12.822925 286.399045 286.399045 0 0 1 40.868298-29.375045c4.783761-2.842746 9.200716-5.272836 13.159165-7.290268l4.600358-2.261971a49.824478 49.824478 0 0 1 0.565492-0.25982z" fill="#FFFFFF" p-id="5842"></path><path d="M930.663164 1007.142209a18.340299 18.340299 0 1 1 0-36.711164 18.340299 18.340299 0 0 1 0 36.711164" fill="#378BCB" p-id="5843"></path><path d="M20.418866 609.173015a18.340299 18.340299 0 1 1 0-36.695881 18.340299 18.340299 0 0 1 0 36.695881M322.590567 162.00597l-12.379701 6.785911a24.102209 24.102209 0 0 0-9.59809 9.598089l-6.78591 12.379702-6.770627-12.379702a24.178627 24.178627 0 0 0-9.613373-9.598089l-12.379702-6.785911 12.379702-6.78591c4.050149-2.200836 7.38197-5.54794 9.613373-9.582806l6.770627-12.394985 6.78591 12.379701c2.200836 4.050149 5.532657 7.397254 9.582806 9.59809l12.394985 6.78591z" fill="#E84756" p-id="5844"></path><path d="M1173.565134 609.173015l-12.394985 6.78591a24.102209 24.102209 0 0 0-9.598089 9.59809l-6.770627 12.379701-6.785911-12.379701a24.178627 24.178627 0 0 0-9.598089-9.59809l-12.394985-6.78591 12.394985-6.785911c4.050149-2.200836 7.38197-5.54794 9.598089-9.582805l6.785911-12.394986 6.770627 12.379702c2.216119 4.050149 5.54794 7.397254 9.598089 9.598089l12.394985 6.785911zM1062.789731 132.172418l-12.394985 6.78591a24.178627 24.178627 0 0 0-9.613373 9.59809l-6.770627 12.379701-6.78591-12.379701a24.102209 24.102209 0 0 0-9.582806-9.59809l-12.394985-6.78591 12.379701-6.770627c4.065433-2.216119 7.397254-5.54794 9.59809-9.59809l6.78591-12.394985 6.770627 12.379702c2.231403 4.065433 5.563224 7.397254 9.613373 9.613373l12.379702 6.770627z" fill="#FCFCFC" p-id="5845"></path><path d="M605.199284 4.661493a31.560597 31.560597 0 1 0 0 63.121194 31.560597 31.560597 0 0 0 0-63.121194z m0 16.934208a14.611104 14.611104 0 1 1 0 29.237493 14.611104 14.611104 0 0 1 0-29.237493z" fill="#3B84C5" p-id="5846"></path></svg>