<?xml version="1.0" standalone="no"?><!DOCTYPE svg PUBLIC "-//W3C//DTD SVG 1.1//EN" "http://www.w3.org/Graphics/SVG/1.1/DTD/svg11.dtd"><svg t="1609769638315" class="icon" viewBox="0 0 1063 1024" version="1.1" xmlns="http://www.w3.org/2000/svg" p-id="6458" xmlns:xlink="http://www.w3.org/1999/xlink" width="132.875" height="128"><defs><style type="text/css"></style></defs><path d="M788.599688 432.925922c12.367792 225.319896-293.449143 395.396987-293.449143 395.396987S201.701403 667.461818 201.701403 432.925922c0-168.866909 131.37787-305.76374 293.449142-305.76374 162.057974 0 293.449143 136.896831 293.449143 305.76374" fill="#ED3C4A" p-id="6459"></path><path d="M292.225662 432.925922c0-168.866909 90.870026-305.737143 202.951481-305.76374h-0.026598c-162.071273 0-293.449143 136.896831-293.449142 305.76374 0 234.535896 293.449143 395.396987 293.449142 395.396987l0.026598-0.026597c-0.492052-0.398961-202.951481-161.127065-202.951481-395.37039M788.599688 432.925922c0-168.800416-131.284779-305.657351-293.262961-305.76374 112.041558 0.10639 202.845091 136.963325 202.845091 305.76374 8.511169 223.883636-200.172052 393.136208-202.845091 395.290597 7.593558-4.255584 305.471169-172.843221 293.262961-395.290597" fill="#398BC9" p-id="6460"></path><path d="M484.524883 123.106078c-172.936312 0-313.131221 140.194909-313.131221 313.131221 0 76.228156 31.118961 149.39761 86.614442 218.61735 55.468883 69.179844 127.973403 126.616935 200.09226 170.09039a51.040416 51.040416 0 0 0 52.822441-0.066494c60.043636-36.332052 122.108675-83.037091 174.345974-138.13361 75.709506-79.832104 117.334442-164.132571 112.374026-250.946493 0-172.497455-140.18161-312.692364-313.117922-312.692364z m0 14.734961c164.797506 0 298.39626 133.598753 298.39626 298.39626 4.70774 82.465247-35.175065 163.201662-108.331221 240.360727-51.2 54.019325-112.280935 99.966338-171.287273 135.673351a36.305455 36.305455 0 0 1-37.595428 0.066493c-70.749091-42.662234-142.003532-99.101922-196.209039-166.699221-53.55387-66.812675-83.369558-136.91013-83.369559-209.40135 0-164.797506 133.598753-298.39626 298.39626-298.39626z" fill="#000000" p-id="6461"></path><path d="M292.345351 672.382338l163.574026 255.414857-12.420987 7.952623-163.574026-255.428156zM676.784208 672.382338l12.394389 7.939324-163.574026 255.428156-12.394389-7.952623z" fill="#000000" p-id="6462"></path><path d="M511.015896 1003.293922h-52.915532c-4.548156 0-8.950026-3.763532-9.867637-8.630857l-9.614961-51.519169c-1.542649-8.245195 2.327273-15.36 8.723948-15.36h74.419533c6.423273 0 10.279896 7.101506 8.737247 15.36l-9.62826 51.519169c-0.904312 4.867325-5.306182 8.644156-9.854338 8.644156" fill="#DBD221" p-id="6463"></path><path d="M521.761247 920.403117h-74.419533c-11.702857 0-18.272416 11.729455-15.958441 24.097247l9.614961 51.519168c1.542649 8.245195 8.91013 14.655169 17.10213 14.655169h52.915532c8.205299 0 15.559481-6.409974 17.10213-14.655169l9.62826-51.519168c2.300675-12.367792-4.268883-24.083948-15.985039-24.083948z m-74.419533 14.74826h74.419533c0.997403 0 2.300675 2.327273 1.489454 6.64935l-9.628259 51.50587c-0.265974 1.422961-1.649039 2.619844-2.606546 2.619845h-52.915532c-0.970805 0-2.35387-1.196883-2.619845-2.619845l-9.628259-51.519168c-0.797922-4.295481 0.518649-6.649351 1.489454-6.649351zM720.536935 554.356364a7.367481 7.367481 0 0 1 7.713247 12.540675c-32.980779 20.347013-69.246338 35.387844-108.34452 45.534753a7.367481 7.367481 0 1 1-3.697039-14.256208c37.715117-9.801143 72.610909-24.283429 104.315013-43.81922zM205.305351 567.814649a7.367481 7.367481 0 0 1 9.575065-4.122597l4.415168 1.702234 6.011013 2.180987c3.417766 1.223481 7.181299 2.526753 11.277299 3.883221 17.554286 5.878026 37.369351 11.756052 59.072831 17.248415 89.340675 22.607792 180.875636 31.810494 266.426182 20.081039l8.883533-1.303273a7.367481 7.367481 0 1 1 2.260779 14.562078l-2.87252 0.438857c-89.50026 13.365195-185.117922 4.096-278.31522-19.495896-22.075844-5.585455-42.249974-11.56987-60.136728-17.554285l-6.024311-2.048c-2.899117-0.997403-5.598753-1.954909-8.112208-2.859221l-7.221195-2.699637a117.826494 117.826494 0 0 1-1.13039-0.438857 7.367481 7.367481 0 0 1-4.122597-9.575065z" fill="#000000" p-id="6464"></path><path d="M275.057039 377.789506a7.367481 7.367481 0 0 1 14.415792 3.032104c-0.984104 4.681143-1.888416 9.362286-2.712935 14.070026a7.367481 7.367481 0 1 1-14.508883-2.526753c0.851117-4.893922 1.782026-9.734649 2.792727-14.575377zM338.345558 236.304623a7.367481 7.367481 0 1 1 11.702858 8.936728c-20.958753 27.461818-38.074182 59.551584-50.162702 96.601766a7.367481 7.367481 0 0 1-14.016831-4.574753c12.620468-38.659325 30.520519-72.211948 52.476675-100.963741zM423.683325 161.047273a7.367481 7.367481 0 0 1 6.370078 13.285402l-1.595845 0.797922a180.250597 180.250597 0 0 0-14.748259 9.01652 261.319481 261.319481 0 0 0-39.537039 33.260052 7.367481 7.367481 0 0 1-10.505974-10.333091 276.001247 276.001247 0 0 1 41.797818-35.108572c4.787532-3.258182 9.189403-5.984416 13.099221-8.192l2.712935-1.502753 2.407065-1.236779z" fill="#FFFFFF" p-id="6465"></path><path d="M502.837195 892.422649a18.112831 18.112831 0 0 1-36.238961 0c0-10.000623 18.112831-34.576623 18.112831-34.576623s18.112831 24.576 18.112831 34.576623" fill="#FAE235" p-id="6466"></path><path d="M1033.654857 389.332779h-118.717506a23.485506 23.485506 0 0 1 0-46.971013H997.415896a23.485506 23.485506 0 1 0 0-46.971013H811.526649a23.485506 23.485506 0 0 1 0-46.971013h130.806026a23.485506 23.485506 0 1 0 0-46.971013H575.79387a23.485506 23.485506 0 0 0 0 46.971013h98.516779a23.485506 23.485506 0 0 1 0 46.971013H542.932779a23.485506 23.485506 0 1 0 0 46.971013H808.574338a23.485506 23.485506 0 0 1 0 46.971013h-101.535585a23.485506 23.485506 0 0 0 0 46.957715h326.616104a23.485506 23.485506 0 0 0 0-46.957715" fill="#FFFFFF" p-id="6467"></path><path d="M808.002494 883.805091a15.97174 15.97174 0 1 1 0.013298-31.956779 15.97174 15.97174 0 0 1 0 31.956779" fill="#378BCB" p-id="6468"></path><path d="M15.97174 537.520208a15.97174 15.97174 0 1 1 0.026598-31.956779A15.97174 15.97174 0 0 1 15.97174 537.533506M278.913662 148.413506l-10.785246 5.904624a21.038545 21.038545 0 0 0-8.351585 8.351584l-5.904623 10.771948-5.891325-10.771948a21.051844 21.051844 0 0 0-8.351584-8.351584l-10.771948-5.891325 10.771948-5.904623a21.011948 21.011948 0 0 0 8.351584-8.351585l5.891325-10.771948 5.904623 10.771948c1.928312 3.524156 4.827429 6.423273 8.351585 8.351585l10.785246 5.904623z" fill="#E84756" p-id="6469"></path><path d="M1019.358753 537.520208l-10.771948 5.891324a21.038545 21.038545 0 0 0-8.351584 8.351585l-5.904624 10.771948-5.891324-10.771948a21.051844 21.051844 0 0 0-8.351585-8.351585l-10.771948-5.891324 10.771948-5.904624a21.011948 21.011948 0 0 0 8.351585-8.351584l5.891324-10.771948 5.904624 10.771948c1.928312 3.524156 4.827429 6.423273 8.351584 8.351584l10.771948 5.904624z" fill="#EBDE23" p-id="6470"></path><path d="M922.969766 122.46774l-10.771948 5.904624a21.011948 21.011948 0 0 0-8.364883 8.351584l-5.891325 10.771948-5.904623-10.771948a20.945455 20.945455 0 0 0-8.351584-8.351584l-10.771948-5.904624 10.771948-5.904623c3.524156-1.928312 6.436571-4.81413 8.351584-8.351585l5.904623-10.771948 5.891325 10.771948c1.928312 3.537455 4.840727 6.423273 8.351584 8.351585l10.785247 5.904623z" fill="#FCFCFC" p-id="6471"></path><path d="M524.806649 11.516675a27.448519 27.448519 0 1 0 0 54.897039 27.448519 27.448519 0 0 0 0-54.897039z m0 14.734961a12.713558 12.713558 0 1 1 0 25.427117 12.713558 12.713558 0 0 1 0-25.427117z" fill="#3B84C5" p-id="6472"></path></svg>