<?xml version="1.0" standalone="no"?><!DOCTYPE svg PUBLIC "-//W3C//DTD SVG 1.1//EN" "http://www.w3.org/Graphics/SVG/1.1/DTD/svg11.dtd"><svg t="1611651549341" class="icon" viewBox="0 0 1024 1024" version="1.1" xmlns="http://www.w3.org/2000/svg" p-id="6463" xmlns:xlink="http://www.w3.org/1999/xlink" width="32" height="32"><defs><style type="text/css"></style></defs><path d="M511.872 286.62784c55.86944 0 114.36544 13.20448 173.8752 39.2448 48.93184 21.41696 98.61632 51.47136 147.66592 89.33888 50.93376 39.32672 90.71104 79.10912 114.5088 104.8064-23.45472 25.34912-62.4896 64.39936-112.83968 103.47008-49.2288 38.1952-99.11808 68.52608-148.26496 90.15808-59.88352 26.35264-118.74304 39.71584-174.94528 39.71584-55.86432 0-114.36032-13.20448-173.87008-39.24992-48.93696-21.41696-98.61632-51.47136-147.66592-89.33888-50.93376-39.3216-90.71104-79.104-114.51392-104.8064 23.45472-25.344 62.49472-64.39424 112.84992-103.46496 49.23392-38.1952 99.11296-68.53632 148.26496-90.1632C396.81024 299.99104 455.67488 286.62784 511.872 286.62784L511.872 286.62784zM511.872 241.14688C237.65504 241.14688 15.36 519.99744 15.36 519.99744s222.29504 278.85568 496.512 278.85568c274.21696 0 496.512-278.85568 496.512-278.85568S786.08896 241.14688 511.872 241.14688L511.872 241.14688M511.104 413.30176c55.80288 0 101.20192 45.39904 101.20192 101.20192 0 55.79776-45.39392 101.1968-101.20192 101.1968-55.79776 0-101.1968-45.39904-101.1968-101.1968C409.9072 458.7008 455.30624 413.30176 511.104 413.30176L511.104 413.30176zM511.104 367.81568c-81.00864 0-146.67776 65.66912-146.67776 146.68288 0 81.00864 65.66912 146.67776 146.67776 146.67776s146.68288-65.66912 146.68288-146.67776C657.792 433.49504 592.11264 367.81568 511.104 367.81568L511.104 367.81568" p-id="6464"></path></svg>