<?xml version="1.0" standalone="no"?><!DOCTYPE svg PUBLIC "-//W3C//DTD SVG 1.1//EN" "http://www.w3.org/Graphics/SVG/1.1/DTD/svg11.dtd"><svg t="1609941602120" class="icon" viewBox="0 0 1024 1024" version="1.1" xmlns="http://www.w3.org/2000/svg" p-id="3200" xmlns:xlink="http://www.w3.org/1999/xlink" width="32" height="32"><defs><style type="text/css"></style></defs><path d="M851.968 815.104 540.672 503.808l296.96-296.96c4.096-4.096 4.096-10.24 0-14.336l-14.336-14.336c-4.096-4.096-10.24-4.096-14.336 0L512 475.136 215.04 178.176c-4.096-4.096-10.24-4.096-14.336 0L186.368 192.512c-4.096 4.096-4.096 10.24 0 14.336l296.96 296.96L172.032 815.104c-4.096 4.096-4.096 10.24 0 14.336l14.336 14.336c4.096 4.096 10.24 4.096 14.336 0L512 534.528l311.296 311.296c4.096 4.096 10.24 4.096 14.336 0l14.336-14.336C856.064 827.392 856.064 819.2 851.968 815.104z" p-id="3201"></path></svg>