<?xml version="1.0" standalone="no"?><!DOCTYPE svg PUBLIC "-//W3C//DTD SVG 1.1//EN" "http://www.w3.org/Graphics/SVG/1.1/DTD/svg11.dtd"><svg t="1609828032115" class="icon" viewBox="0 0 1273 1024" version="1.1" xmlns="http://www.w3.org/2000/svg" p-id="8958" width="159.125" height="128" data-spm-anchor-id="a313x.7781069.0.i12" xmlns:xlink="http://www.w3.org/1999/xlink"><defs><style type="text/css"></style></defs><path d="M173.001385 348.298744a171.672123 171.672123 0 0 1-122.464798-50.508081A173.055906 173.055906 0 0 1 0.00083 175.049108C0.00083 78.737808 76.773113 0.000554 173.001385 0.000554a172.77915 172.77915 0 0 1 173.138934 173.526392 174.633419 174.633419 0 0 1-50.397378 123.378096 174.716446 174.716446 0 0 1-122.741556 51.393702zM1271.69744 1023.612541H0.00083v-174.633419l289.764168-290.400708 144.217868 144.300895L896.498508 240.889504 1273.081223 617.776652V1024h-1.771242v-0.387459h0.359784z" p-id="8959"></path></svg>